<?xml version="1.0" encoding="UTF-8" standalone="no"?> <!-- Created with Vectornator for iOS (http://vectornator.io/) --><!DOCTYPE svg PUBLIC "-//W3C//DTD SVG 1.1//EN" "http://www.w3.org/Graphics/SVG/1.1/DTD/svg11.dtd">
<svg height="100%" style="fill-rule:evenodd;clip-rule:evenodd;stroke-linecap:round;stroke-linejoin:round;" xmlns:xlink="http://www.w3.org/1999/xlink" xmlns="http://www.w3.org/2000/svg" xml:space="preserve" width="100%" xmlns:vectornator="http://vectornator.io" version="1.1" viewBox="0 0 1514.09 108.834">
<metadata>
<vectornator:setting key="DisplayWhiteBackground" value="1"/>
<vectornator:setting key="RulersVisible" value="1"/>
<vectornator:setting key="Units" value="Millimeters"/>
<vectornator:setting key="New" value="1"/>
<vectornator:setting key="DynamicGuides" value="1"/>
<vectornator:setting key="GuidesVisible" value="1"/>
<vectornator:setting key="SnapToPoints" value="1"/>
<vectornator:setting key="SnapToGrid" value="1"/>
<vectornator:setting key="SnapToGuides" value="1"/>
<vectornator:setting key="DimensionsVisible" value="1"/>
<vectornator:setting key="SnapToEdges" value="1"/>
</metadata>
<defs>
<path d="M26.3968+51.26C26.3968+36.0668+38.7133+23.7503+53.9064+23.7503C69.0996+23.7503+81.4161+36.0668+81.4161+51.26C81.4161+66.4532+69.0996+78.7697+53.9064+78.7697C38.7133+78.7697+26.3968+66.4532+26.3968+51.26Z" id="Mask"/>
</defs>
<g id="Layer 1" vectornator:layerName="Layer 1">
<path d="M23.7526+6.45189L1495.87+6.45189C1502.14+6.45189+1507.23+11.5782+1507.23+17.9019L1507.23+91.2564C1507.23+97.5801+1502.14+102.706+1495.87+102.706L23.7526+102.706C17.481+102.706+12.3968+97.5801+12.3968+91.2564L12.3968+17.9019C12.3968+11.5782+17.481+6.45189+23.7526+6.45189Z" opacity="1" fill="#ffffff"/>
<g opacity="1">
<path d="M111.212+67.0721C112.737+66.7601+113.76+66.3181+114.28+65.7461C114.8+65.1741+115.06+64.1601+115.06+62.7041L115.06+42.5801C115.06+41.5054+114.939+40.7861+114.696+40.4221C114.453+40.0581+113.951+39.8761+113.188+39.8761L111.368+39.9281L111.108+39.5121L111.524+36.4961L118.7+36.5481C119.844+36.5481+122.271+36.4267+125.98+36.1841L125.72+39.6161C124.403+39.7894+123.527+40.0581+123.094+40.4221C122.661+40.7861+122.409+41.4534+122.34+42.4241C121.889+50.6054+121.664+57.4867+121.664+63.0681C121.664+64.4894+121.803+65.4427+122.08+65.9281C122.357+66.4134+122.895+66.6561+123.692+66.6561C124.073+66.6561+124.836+66.6041+125.98+66.5001L126.188+66.8121L125.72+70.0881L123.848+70.0361L118.076+69.9321C116.481+69.9321+114.089+70.0881+110.9+70.4001L111.212+67.0721Z" opacity="1" fill="#ab7c00"/>
<path d="M130.348+48.5081L130.4+46.1681C130.4+44.0534+130.339+42.0687+130.218+40.2141C130.097+38.3594+130.019+37.1721+129.984+36.6521L135.132+35.9241L135.548+36.4441C135.444+37.1027+135.21+38.5674+134.846+40.8381C134.482+43.1087+134.057+45.3881+133.572+47.6761L131.128+48.6641L130.348+48.5081Z" opacity="1" fill="#ab7c00"/>
<path d="M153.644+67.1241C154.476+66.9507+155.074+66.6387+155.438+66.1881C155.802+65.7374+156.001+65.0787+156.036+64.2121L156.192+55.2161C156.192+53.6907+155.915+52.5554+155.36+51.8101C154.805+51.0647+153.956+50.6921+152.812+50.6921C151.495+50.6921+149.969+51.3507+148.236+52.6681C147.889+58.9081+147.716+62.8081+147.716+64.3681C147.716+65.2694+147.829+65.8847+148.054+66.2141C148.279+66.5434+148.687+66.7081+149.276+66.7081L150.68+66.6561L150.784+66.8641L150.264+70.0881C149.883+70.0534+149.163+70.0187+148.106+69.9841C147.049+69.9494+145.948+69.9321+144.804+69.9321C143.383+69.9321+142.091+69.9494+140.93+69.9841C139.769+70.0187+138.997+70.0534+138.616+70.0881L139.084+66.9161C140.089+66.8467+140.791+66.6041+141.19+66.1881C141.589+65.7721+141.788+65.0787+141.788+64.1081L141.788+53.0841C141.788+51.8707+141.606+51.0474+141.242+50.6141C140.878+50.1807+140.211+49.9641+139.24+49.9641L138.564+49.9641L138.356+49.7041L138.616+47.0001C140.557+46.7227+142.499+46.3934+144.44+46.0121C146.381+45.6307+147.629+45.3881+148.184+45.2841L148.6+45.8041C148.531+46.0121+148.427+46.4801+148.288+47.2081C148.149+47.9361+148.063+48.6641+148.028+49.3921L148.184+49.5481C149.397+48.5774+150.689+47.6327+152.058+46.7141C153.427+45.7954+154.407+45.3361+154.996+45.3361C156.937+45.3361+158.523+45.7001+159.754+46.4281C160.985+47.1561+161.843+48.2307+162.328+49.6521C163.299+48.7854+164.538+47.8494+166.046+46.8441C167.554+45.8387+168.62+45.3361+169.244+45.3361C171.705+45.3361+173.629+45.9254+175.016+47.1041C176.403+48.2827+177.096+49.9294+177.096+52.0441C177.096+52.8761+176.94+54.6961+176.628+57.5041C176.281+61.0401+176.108+63.3107+176.108+64.3161C176.108+65.2174+176.238+65.8587+176.498+66.2401C176.758+66.6214+177.183+66.8121+177.772+66.8121C178.084+66.8121+178.405+66.7947+178.734+66.7601C179.063+66.7254+179.28+66.7081+179.384+66.7081L179.488+66.9161L178.968+70.0881C178.552+70.0534+177.789+70.0187+176.68+69.9841C175.571+69.9494+174.444+69.9321+173.3+69.9321C172.468+69.9321+171.419+69.9667+170.154+70.0361C168.889+70.1054+168.065+70.1574+167.684+70.1921L168.048+66.9681C168.845+66.8641+169.409+66.6041+169.738+66.1881C170.067+65.7721+170.249+65.1134+170.284+64.2121L170.44+55.2161C170.475+52.2001+169.348+50.6921+167.06+50.6921C165.743+50.6921+164.252+51.3334+162.588+52.6161L161.912+64.3161C161.912+65.2174+162.042+65.8587+162.302+66.2401C162.562+66.6214+162.969+66.8121+163.524+66.8121C163.836+66.8121+164.131+66.7947+164.408+66.7601C164.685+66.7254+164.876+66.7081+164.98+66.7081L165.084+66.9161L164.564+70.0881C164.183+70.0534+163.455+70.0187+162.38+69.9841C161.305+69.9494+160.213+69.9321+159.104+69.9321C158.272+69.9321+157.197+69.9927+155.88+70.1141C154.563+70.2354+153.696+70.3134+153.28+70.3481L153.644+67.1241Z" opacity="1" fill="#ab7c00"/>
<path d="M202.472+70.5561C198.936+70.5561+196.145+69.4901+194.1+67.3581C192.055+65.2261+191.032+62.3054+191.032+58.5961C191.032+56.0307+191.569+53.7427+192.644+51.7321C193.719+49.7214+195.218+48.1527+197.142+47.0261C199.066+45.8994+201.241+45.3361+203.668+45.3361C204.812+45.3361+205.878+45.4141+206.866+45.5701C207.854+45.7261+208.634+45.8821+209.206+46.0381C209.778+46.1941+210.133+46.3067+210.272+46.3761L210.48+46.8441C210.445+47.0521+210.35+47.5287+210.194+48.2741C210.038+49.0194+209.873+49.9814+209.7+51.1601C209.527+52.3387+209.405+53.5694+209.336+54.8521L206.008+55.0601L206.008+53.3441C206.008+52.1654+205.722+51.2554+205.15+50.6141C204.578+49.9727+203.772+49.6521+202.732+49.6521C201.103+49.6521+199.863+50.2501+199.014+51.4461C198.165+52.6421+197.74+54.3494+197.74+56.5681C197.74+59.4107+198.243+61.5947+199.248+63.1201C200.253+64.6454+201.675+65.4081+203.512+65.4081C204.379+65.4081+205.219+65.2954+206.034+65.0701C206.849+64.8447+207.525+64.6107+208.062+64.3681C208.599+64.1254+208.937+63.9694+209.076+63.9001L209.44+64.0561L210.272+66.7081C210.029+66.9161+209.475+67.3234+208.608+67.9301C207.741+68.5367+206.736+69.1261+205.592+69.6981C204.448+70.2701+203.408+70.5561+202.472+70.5561Z" opacity="1" fill="#ab7c00"/>
<path d="M215.992+52.4081C215.992+51.5067+215.853+50.8567+215.576+50.4581C215.299+50.0594+214.848+49.8601+214.224+49.8601C213.912+49.8601+213.635+49.8774+213.392+49.9121C213.149+49.9467+212.993+49.9814+212.924+50.0161L213.236+47.0001C215.039+46.7574+216.911+46.4541+218.852+46.0901C220.793+45.7261+222.059+45.4747+222.648+45.3361L223.116+46.1681C222.735+47.0347+222.405+48.9327+222.128+51.8621C221.851+54.7914+221.712+57.8161+221.712+60.9361C221.712+62.3574+221.981+63.4147+222.518+64.1081C223.055+64.8014+223.879+65.1481+224.988+65.1481C225.681+65.1481+226.366+64.9834+227.042+64.6541C227.718+64.3247+228.541+63.8307+229.512+63.1721L229.512+52.4601C229.512+51.4894+229.365+50.8307+229.07+50.4841C228.775+50.1374+228.177+49.9467+227.276+49.9121L226.34+49.9641L226.756+47.0001C228.628+46.7574+230.561+46.4627+232.554+46.1161C234.547+45.7694+235.839+45.5441+236.428+45.4401L236.896+46.2721C236.515+47.0694+236.185+49.0974+235.908+52.3561C235.631+55.6147+235.492+59.2027+235.492+63.1201C235.492+63.7787+235.665+64.2987+236.012+64.6801C236.359+65.0614+236.809+65.2521+237.364+65.2521C237.745+65.2521+238.118+65.1827+238.482+65.0441C238.846+64.9054+239.149+64.7667+239.392+64.6281C239.635+64.4894+239.791+64.4027+239.86+64.3681L240.64+65.4081C240.501+65.6507+240.155+66.1447+239.6+66.8901C239.045+67.6354+238.369+68.3894+237.572+69.1521C236.775+69.9147+236.012+70.3827+235.284+70.5561C232.129+70.5561+230.361+69.2214+229.98+66.5521L229.564+66.3441C228.247+67.5574+227.042+68.5541+225.95+69.3341C224.858+70.1141+224.121+70.5041+223.74+70.5041C221.105+70.5041+219.095+69.9494+217.708+68.8401C216.321+67.7307+215.628+66.1187+215.628+64.0041L215.992+52.4081Z" opacity="1" fill="#ab7c00"/>
<path d="M242.772+66.9681C243.812+66.8987+244.514+66.6214+244.878+66.1361C245.242+65.6507+245.424+64.7321+245.424+63.3801L245.424+53.0321C245.424+51.8534+245.268+51.0474+244.956+50.6141C244.644+50.1807+244.055+49.9641+243.188+49.9641L242.2+50.0161L241.94+49.6521L242.252+47.0521C244.089+46.7401+245.97+46.3934+247.894+46.0121C249.818+45.6307+251.057+45.3881+251.612+45.2841L252.08+45.7521C252.011+46.0641+251.915+46.7227+251.794+47.7281C251.673+48.7334+251.595+49.7041+251.56+50.6401L251.872+50.8481C252.947+49.2187+254.134+47.9534+255.434+47.0521C256.734+46.1507+257.973+45.7001+259.152+45.7001C259.637+45.7001+260.036+45.7174+260.348+45.7521C260.66+45.7867+260.868+45.8214+260.972+45.8561L261.18+46.2721C261.076+46.8614+260.903+48.1354+260.66+50.0941C260.417+52.0527+260.244+53.9161+260.14+55.6841L256.812+55.8921C256.812+54.2281+256.717+53.1274+256.526+52.5901C256.335+52.0527+255.945+51.7841+255.356+51.7841C254.801+51.7841+254.212+51.9921+253.588+52.4081C252.964+52.8241+252.375+53.3961+251.82+54.1241C251.785+55.0947+251.707+56.6807+251.586+58.8821C251.465+61.0834+251.387+62.8427+251.352+64.1601C251.352+65.0614+251.499+65.6854+251.794+66.0321C252.089+66.3787+252.617+66.5521+253.38+66.5521C253.9+66.5521+254.42+66.5347+254.94+66.5001C255.46+66.4654+255.807+66.4307+255.98+66.3961L256.136+66.7081L255.564+70.1401C255.079+70.1054+254.186+70.0621+252.886+70.0101C251.586+69.9581+250.243+69.9321+248.856+69.9321C247.539+69.9321+246.221+69.9581+244.904+70.0101C243.587+70.0621+242.737+70.1054+242.356+70.1401L242.772+66.9681Z" opacity="1" fill="#ab7c00"/>
<path d="M264.144+66.9681C265.184+66.8987+265.886+66.6214+266.25+66.1361C266.614+65.6507+266.796+64.7321+266.796+63.3801L266.796+53.0321C266.796+51.8534+266.64+51.0474+266.328+50.6141C266.016+50.1807+265.427+49.9641+264.56+49.9641L263.572+50.0161L263.312+49.6521L263.624+47.0521C265.461+46.7401+267.342+46.3934+269.266+46.0121C271.19+45.6307+272.429+45.3881+272.984+45.2841L273.452+45.7521C273.383+46.0641+273.287+46.7227+273.166+47.7281C273.045+48.7334+272.967+49.7041+272.932+50.6401L273.244+50.8481C274.319+49.2187+275.506+47.9534+276.806+47.0521C278.106+46.1507+279.345+45.7001+280.524+45.7001C281.009+45.7001+281.408+45.7174+281.72+45.7521C282.032+45.7867+282.24+45.8214+282.344+45.8561L282.552+46.2721C282.448+46.8614+282.275+48.1354+282.032+50.0941C281.789+52.0527+281.616+53.9161+281.512+55.6841L278.184+55.8921C278.184+54.2281+278.089+53.1274+277.898+52.5901C277.707+52.0527+277.317+51.7841+276.728+51.7841C276.173+51.7841+275.584+51.9921+274.96+52.4081C274.336+52.8241+273.747+53.3961+273.192+54.1241C273.157+55.0947+273.079+56.6807+272.958+58.8821C272.837+61.0834+272.759+62.8427+272.724+64.1601C272.724+65.0614+272.871+65.6854+273.166+66.0321C273.461+66.3787+273.989+66.5521+274.752+66.5521C275.272+66.5521+275.792+66.5347+276.312+66.5001C276.832+66.4654+277.179+66.4307+277.352+66.3961L277.508+66.7081L276.936+70.1401C276.451+70.1054+275.558+70.0621+274.258+70.0101C272.958+69.9581+271.615+69.9321+270.228+69.9321C268.911+69.9321+267.593+69.9581+266.276+70.0101C264.959+70.0621+264.109+70.1054+263.728+70.1401L264.144+66.9681Z" opacity="1" fill="#ab7c00"/>
<path d="M296.332+70.5561C292.692+70.5561+289.823+69.4901+287.726+67.3581C285.629+65.2261+284.58+62.3054+284.58+58.5961C284.58+56.1001+285.117+53.8467+286.192+51.8361C287.267+49.8254+288.74+48.2394+290.612+47.0781C292.484+45.9167+294.564+45.3361+296.852+45.3361C302.676+45.3361+305.588+48.2827+305.588+54.1761C305.588+55.2161+305.467+56.1867+305.224+57.0881L304.6+57.7121L291.132+57.7121C291.167+60.2427+291.765+62.1754+292.926+63.5101C294.087+64.8447+295.708+65.5121+297.788+65.5121C299.591+65.5121+301.653+64.9921+303.976+63.9521L304.34+64.1601L305.172+66.7081C303.889+67.6787+302.407+68.5627+300.726+69.3601C299.045+70.1574+297.58+70.5561+296.332+70.5561ZM298.256+54.4361C298.672+54.4014+298.941+54.3147+299.062+54.1761C299.183+54.0374+299.244+53.7254+299.244+53.2401C299.244+50.6747+298.152+49.3921+295.968+49.3921C294.616+49.3921+293.515+49.8601+292.666+50.7961C291.817+51.7321+291.305+53.0841+291.132+54.8521L298.256+54.4361Z" opacity="1" fill="#ab7c00"/>
<path d="M323.84+67.1241C324.707+66.9507+325.322+66.6387+325.686+66.1881C326.05+65.7374+326.249+65.0787+326.284+64.2121L326.44+55.2161C326.44+53.6907+326.163+52.5554+325.608+51.8101C325.053+51.0647+324.204+50.6921+323.06+50.6921C321.743+50.6921+320.217+51.3507+318.484+52.6681C318.137+58.9081+317.964+62.8081+317.964+64.3681C317.964+65.2347+318.077+65.8414+318.302+66.1881C318.527+66.5347+318.935+66.7081+319.524+66.7081L320.928+66.6561L321.032+66.8641L320.512+70.0881C320.131+70.0534+319.411+70.0187+318.354+69.9841C317.297+69.9494+316.196+69.9321+315.052+69.9321C313.943+69.9321+312.738+69.9754+311.438+70.0621C310.138+70.1487+309.297+70.2094+308.916+70.2441L309.332+67.0201C310.337+66.9161+311.039+66.6474+311.438+66.2141C311.837+65.7807+312.036+65.0787+312.036+64.1081L312.036+53.0841C312.036+51.8707+311.854+51.0474+311.49+50.6141C311.126+50.1807+310.459+49.9641+309.488+49.9641L308.812+49.9641L308.604+49.7041L308.864+47.0001C310.84+46.7227+312.79+46.3934+314.714+46.0121C316.638+45.6307+317.877+45.3881+318.432+45.2841L318.848+45.8041C318.779+46.0121+318.675+46.4801+318.536+47.2081C318.397+47.9361+318.311+48.6641+318.276+49.3921L318.484+49.6001C319.559+48.6641+320.798+47.7194+322.202+46.7661C323.606+45.8127+324.62+45.3361+325.244+45.3361C327.705+45.3361+329.621+45.9254+330.99+47.1041C332.359+48.2827+333.044+49.9294+333.044+52.0441C333.044+52.5641+332.905+54.3841+332.628+57.5041C332.281+61.0401+332.108+63.3107+332.108+64.3161C332.108+65.2174+332.238+65.8587+332.498+66.2401C332.758+66.6214+333.165+66.8121+333.72+66.8121C334.067+66.8121+334.396+66.7947+334.708+66.7601C335.02+66.7254+335.228+66.7081+335.332+66.7081L335.436+66.9161L334.968+70.0881C334.552+70.0534+333.798+70.0187+332.706+69.9841C331.614+69.9494+330.496+69.9321+329.352+69.9321C328.52+69.9321+327.454+69.9927+326.154+70.1141C324.854+70.2354+323.996+70.3134+323.58+70.3481L323.84+67.1241Z" opacity="1" fill="#ab7c00"/>
<path d="M347.188+70.5561C344.727+70.5561+342.924+70.0447+341.78+69.0221C340.636+67.9994+340.064+66.3787+340.064+64.1601L340.064+52.5641C340.064+51.4547+339.873+50.7181+339.492+50.3541C339.111+49.9901+338.365+49.7907+337.256+49.7561L336.736+49.3921L337.1+46.8441C338.417+46.2201+339.717+45.5007+341+44.6861C342.283+43.8714+343.349+43.1521+344.198+42.5281C345.047+41.9041+345.576+41.5054+345.784+41.3321L347.24+42.0601C347.205+42.2681+347.127+42.7707+347.006+43.5681C346.885+44.3654+346.772+45.3534+346.668+46.5321L352.804+46.3761L353.012+46.6361L352.492+50.1201L346.356+49.9641C346.148+52.9801+346.044+56.7587+346.044+61.3001C346.044+62.7907+346.304+63.8654+346.824+64.5241C347.344+65.1827+348.193+65.5121+349.372+65.5121C349.996+65.5121+350.629+65.4081+351.27+65.2001C351.911+64.9921+352.319+64.8534+352.492+64.7841L353.168+66.4481C352.96+66.6561+352.466+67.0894+351.686+67.7481C350.906+68.4067+350.074+69.0394+349.19+69.6461C348.306+70.2527+347.639+70.5561+347.188+70.5561Z" opacity="1" fill="#ab7c00"/>
<path d="M354.936+67.2281C355.733+67.0547+356.314+66.8034+356.678+66.4741C357.042+66.1447+357.276+65.7287+357.38+65.2261C357.484+64.7234+357.536+63.9694+357.536+62.9641L357.536+38.8361C357.536+37.9001+357.458+37.2327+357.302+36.8341C357.146+36.4354+356.843+36.1754+356.392+36.0541C355.941+35.9327+355.196+35.9067+354.156+35.9761L353.948+35.7681L354.26+33.0121C358.455+32.4574+361.956+31.9027+364.764+31.3481L365.128+32.3361C364.643+33.4801+364.253+37.0161+363.958+42.9441C363.663+48.8721+363.516+56.0481+363.516+64.4721C363.516+65.3387+363.637+65.9454+363.88+66.2921C364.123+66.6387+364.521+66.8121+365.076+66.8121L366.792+66.7081L366.948+67.0201L366.376+70.0881L364.66+70.0361C362.719+69.9667+361.332+69.9321+360.5+69.9321C359.183+69.9321+357.207+70.0881+354.572+70.4001L354.936+67.2281Z" opacity="1" fill="#ab7c00"/>
<path d="M370.12+82.4641C369.808+82.4641+369.34+82.1954+368.716+81.6581C368.092+81.1207+367.529+80.5141+367.026+79.8381C366.523+79.1621+366.272+78.6507+366.272+78.3041L366.636+77.6801C368.855+77.5067+370.831+76.7874+372.564+75.5221C374.297+74.2567+375.753+72.5321+376.932+70.3481C376.828+70.1401+376.75+69.9321+376.698+69.7241C376.646+69.5161+376.585+69.3254+376.516+69.1521C376.065+67.9387+375.069+65.1567+373.526+60.8061C371.983+56.4554+370.796+53.2921+369.964+51.3161C369.617+50.5187+369.193+49.9554+368.69+49.6261C368.187+49.2967+367.555+49.1147+366.792+49.0801L366.688+48.8201L367.052+45.9081L371.108+45.9601C372.668+45.9601+374.367+45.9081+376.204+45.8041C378.041+45.7001+378.96+45.6307+378.96+45.5961L379.064+45.8561L378.648+48.8201C377.643+48.8547+376.975+48.9674+376.646+49.1581C376.317+49.3487+376.152+49.6521+376.152+50.0681C376.152+50.5881+376.421+51.8101+376.958+53.7341C377.495+55.6581+378.05+57.5647+378.622+59.4541C379.194+61.3434+379.567+62.5654+379.74+63.1201L380.26+63.1201C383.415+55.1121+384.992+50.7614+384.992+50.0681C384.992+49.6867+384.871+49.4094+384.628+49.2361C384.385+49.0627+383.987+48.9761+383.432+48.9761L381.768+48.9761L381.612+48.7161L382.028+45.8041C382.375+45.8387+383.068+45.8734+384.108+45.9081C385.148+45.9427+386.292+45.9601+387.54+45.9601L392.324+45.9081L391.908+49.0281C391.145+49.2014+390.591+49.4527+390.244+49.7821C389.897+50.1114+389.568+50.7094+389.256+51.5761L382.652+67.6441C380.433+73.0174+378.362+76.8394+376.438+79.1101C374.514+81.3807+372.408+82.4987+370.12+82.4641Z" opacity="1" fill="#ab7c00"/>
<path d="M401.788+67.2281C402.585+67.0547+403.166+66.8034+403.53+66.4741C403.894+66.1447+404.128+65.7287+404.232+65.2261C404.336+64.7234+404.388+63.9694+404.388+62.9641L404.388+38.8361C404.388+37.9001+404.31+37.2327+404.154+36.8341C403.998+36.4354+403.695+36.1754+403.244+36.0541C402.793+35.9327+402.048+35.9067+401.008+35.9761L400.8+35.7681L401.112+33.0121C405.307+32.4574+408.808+31.9027+411.616+31.3481L411.98+32.3361C411.495+33.4801+411.105+37.0161+410.81+42.9441C410.515+48.8721+410.368+56.0481+410.368+64.4721C410.368+65.3387+410.489+65.9454+410.732+66.2921C410.975+66.6387+411.373+66.8121+411.928+66.8121L413.644+66.7081L413.8+67.0201L413.228+70.0881L411.512+70.0361C409.571+69.9667+408.184+69.9321+407.352+69.9321C406.035+69.9321+404.059+70.0881+401.424+70.4001L401.788+67.2281Z" opacity="1" fill="#ab7c00"/>
<path d="M427.372+70.5561C423.732+70.5561+420.863+69.4901+418.766+67.3581C416.669+65.2261+415.62+62.3054+415.62+58.5961C415.62+56.1001+416.157+53.8467+417.232+51.8361C418.307+49.8254+419.78+48.2394+421.652+47.0781C423.524+45.9167+425.604+45.3361+427.892+45.3361C433.716+45.3361+436.628+48.2827+436.628+54.1761C436.628+55.2161+436.507+56.1867+436.264+57.0881L435.64+57.7121L422.172+57.7121C422.207+60.2427+422.805+62.1754+423.966+63.5101C425.127+64.8447+426.748+65.5121+428.828+65.5121C430.631+65.5121+432.693+64.9921+435.016+63.9521L435.38+64.1601L436.212+66.7081C434.929+67.6787+433.447+68.5627+431.766+69.3601C430.085+70.1574+428.62+70.5561+427.372+70.5561ZM429.296+54.4361C429.712+54.4014+429.981+54.3147+430.102+54.1761C430.223+54.0374+430.284+53.7254+430.284+53.2401C430.284+50.6747+429.192+49.3921+427.008+49.3921C425.656+49.3921+424.555+49.8601+423.706+50.7961C422.857+51.7321+422.345+53.0841+422.172+54.8521L429.296+54.4361Z" opacity="1" fill="#ab7c00"/>
<path d="M458.156+70.5561C456.631+70.5561+455.426+70.2181+454.542+69.5421C453.658+68.8661+453.129+67.8694+452.956+66.5521L452.54+66.3961C451.431+67.5401+450.356+68.4847+449.316+69.2301C448.276+69.9754+447.444+70.3481+446.82+70.3481C444.775+70.3481+443.076+69.6287+441.724+68.1901C440.372+66.7514+439.696+64.9574+439.696+62.8081C439.696+61.7334+439.973+60.8061+440.528+60.0261C441.083+59.2461+441.811+58.7347+442.712+58.4921L452.748+56.1521L452.8+54.9041C452.8+53.4134+452.401+52.2521+451.604+51.4201C450.807+50.5881+449.715+50.1721+448.328+50.1721C447.392+50.1721+446.378+50.4061+445.286+50.8741C444.194+51.3421+443.18+51.9227+442.244+52.6161L441.776+52.4081L440.892+49.2881C442.625+48.3174+444.445+47.4161+446.352+46.5841C448.259+45.7521+449.611+45.3361+450.408+45.3361C453.285+45.3361+455.443+45.9861+456.882+47.2861C458.321+48.5861+459.04+50.2934+459.04+52.4081C459.04+53.1707+458.884+54.7307+458.572+57.0881C458.191+60.4507+458+62.4614+458+63.1201C458+63.7787+458.173+64.2987+458.52+64.6801C458.867+65.0614+459.317+65.2521+459.872+65.2521C460.288+65.2521+460.73+65.1567+461.198+64.9661C461.666+64.7754+462.056+64.5761+462.368+64.3681L463.148+65.4601C462.524+66.5694+461.753+67.6354+460.834+68.6581C459.915+69.6807+459.023+70.3134+458.156+70.5561ZM448.744+65.4081C449.264+65.4081+449.879+65.2694+450.59+64.9921C451.301+64.7147+451.933+64.3507+452.488+63.9001L452.644+58.9601L447.08+60.5201C446.248+60.7281+445.832+61.3001+445.832+62.2361C445.832+63.1374+446.101+63.8914+446.638+64.4981C447.175+65.1047+447.877+65.4081+448.744+65.4081Z" opacity="1" fill="#ab7c00"/>
<path d="M465.696+66.9681C466.736+66.8987+467.438+66.6214+467.802+66.1361C468.166+65.6507+468.348+64.7321+468.348+63.3801L468.348+53.0321C468.348+51.8534+468.192+51.0474+467.88+50.6141C467.568+50.1807+466.979+49.9641+466.112+49.9641L465.124+50.0161L464.864+49.6521L465.176+47.0521C467.013+46.7401+468.894+46.3934+470.818+46.0121C472.742+45.6307+473.981+45.3881+474.536+45.2841L475.004+45.7521C474.935+46.0641+474.839+46.7227+474.718+47.7281C474.597+48.7334+474.519+49.7041+474.484+50.6401L474.796+50.8481C475.871+49.2187+477.058+47.9534+478.358+47.0521C479.658+46.1507+480.897+45.7001+482.076+45.7001C482.561+45.7001+482.96+45.7174+483.272+45.7521C483.584+45.7867+483.792+45.8214+483.896+45.8561L484.104+46.2721C484+46.8614+483.827+48.1354+483.584+50.0941C483.341+52.0527+483.168+53.9161+483.064+55.6841L479.736+55.8921C479.736+54.2281+479.641+53.1274+479.45+52.5901C479.259+52.0527+478.869+51.7841+478.28+51.7841C477.725+51.7841+477.136+51.9921+476.512+52.4081C475.888+52.8241+475.299+53.3961+474.744+54.1241C474.709+55.0947+474.631+56.6807+474.51+58.8821C474.389+61.0834+474.311+62.8427+474.276+64.1601C474.276+65.0614+474.423+65.6854+474.718+66.0321C475.013+66.3787+475.541+66.5521+476.304+66.5521C476.824+66.5521+477.344+66.5347+477.864+66.5001C478.384+66.4654+478.731+66.4307+478.904+66.3961L479.06+66.7081L478.488+70.1401C478.003+70.1054+477.11+70.0621+475.81+70.0101C474.51+69.9581+473.167+69.9321+471.78+69.9321C470.463+69.9321+469.145+69.9581+467.828+70.0101C466.511+70.0621+465.661+70.1054+465.28+70.1401L465.696+66.9681Z" opacity="1" fill="#ab7c00"/>
<path d="M501.368+67.1241C502.235+66.9507+502.85+66.6387+503.214+66.1881C503.578+65.7374+503.777+65.0787+503.812+64.2121L503.968+55.2161C503.968+53.6907+503.691+52.5554+503.136+51.8101C502.581+51.0647+501.732+50.6921+500.588+50.6921C499.271+50.6921+497.745+51.3507+496.012+52.6681C495.665+58.9081+495.492+62.8081+495.492+64.3681C495.492+65.2347+495.605+65.8414+495.83+66.1881C496.055+66.5347+496.463+66.7081+497.052+66.7081L498.456+66.6561L498.56+66.8641L498.04+70.0881C497.659+70.0534+496.939+70.0187+495.882+69.9841C494.825+69.9494+493.724+69.9321+492.58+69.9321C491.471+69.9321+490.266+69.9754+488.966+70.0621C487.666+70.1487+486.825+70.2094+486.444+70.2441L486.86+67.0201C487.865+66.9161+488.567+66.6474+488.966+66.2141C489.365+65.7807+489.564+65.0787+489.564+64.1081L489.564+53.0841C489.564+51.8707+489.382+51.0474+489.018+50.6141C488.654+50.1807+487.987+49.9641+487.016+49.9641L486.34+49.9641L486.132+49.7041L486.392+47.0001C488.368+46.7227+490.318+46.3934+492.242+46.0121C494.166+45.6307+495.405+45.3881+495.96+45.2841L496.376+45.8041C496.307+46.0121+496.203+46.4801+496.064+47.2081C495.925+47.9361+495.839+48.6641+495.804+49.3921L496.012+49.6001C497.087+48.6641+498.326+47.7194+499.73+46.7661C501.134+45.8127+502.148+45.3361+502.772+45.3361C505.233+45.3361+507.149+45.9254+508.518+47.1041C509.887+48.2827+510.572+49.9294+510.572+52.0441C510.572+52.5641+510.433+54.3841+510.156+57.5041C509.809+61.0401+509.636+63.3107+509.636+64.3161C509.636+65.2174+509.766+65.8587+510.026+66.2401C510.286+66.6214+510.693+66.8121+511.248+66.8121C511.595+66.8121+511.924+66.7947+512.236+66.7601C512.548+66.7254+512.756+66.7081+512.86+66.7081L512.964+66.9161L512.496+70.0881C512.08+70.0534+511.326+70.0187+510.234+69.9841C509.142+69.9494+508.024+69.9321+506.88+69.9321C506.048+69.9321+504.982+69.9927+503.682+70.1141C502.382+70.2354+501.524+70.3134+501.108+70.3481L501.368+67.1241Z" opacity="1" fill="#ab7c00"/>
<path d="M515.824+67.2281C516.829+67.0547+517.566+66.7167+518.034+66.2141C518.502+65.7114+518.736+64.9747+518.736+64.0041L518.736+52.7721C518.736+51.6627+518.58+50.9001+518.268+50.4841C517.956+50.0681+517.384+49.8601+516.552+49.8601C516.309+49.8601+516.067+49.8774+515.824+49.9121C515.581+49.9467+515.425+49.9814+515.356+50.0161L515.668+47.0521C517.609+46.7747+519.585+46.4541+521.596+46.0901C523.607+45.7261+524.907+45.4747+525.496+45.3361L525.964+46.1681C525.583+46.9307+525.279+49.0194+525.054+52.4341C524.829+55.8487+524.716+59.8614+524.716+64.4721C524.716+65.3041+524.837+65.8934+525.08+66.2401C525.323+66.5867+525.739+66.7601+526.328+66.7601C526.64+66.7601+526.943+66.7427+527.238+66.7081C527.533+66.6734+527.732+66.6561+527.836+66.6561L527.992+66.9161L527.472+70.0881C527.091+70.0534+526.337+70.0187+525.21+69.9841C524.083+69.9494+522.931+69.9321+521.752+69.9321C520.677+69.9321+519.455+70.0101+518.086+70.1661C516.717+70.3221+515.824+70.4347+515.408+70.5041L515.824+67.2281ZM521.284+40.8641C520.14+40.8641+519.256+40.5347+518.632+39.8761C518.008+39.2174+517.696+38.3334+517.696+37.2241C517.696+35.9761+518.069+34.9707+518.814+34.2081C519.559+33.4454+520.556+33.0641+521.804+33.0641C522.913+33.0641+523.78+33.4021+524.404+34.0781C525.028+34.7541+525.34+35.6467+525.34+36.7561C525.34+37.9694+524.967+38.9574+524.222+39.7201C523.477+40.4827+522.497+40.8641+521.284+40.8641Z" opacity="1" fill="#ab7c00"/>
<path d="M545.776+67.1241C546.643+66.9507+547.258+66.6387+547.622+66.1881C547.986+65.7374+548.185+65.0787+548.22+64.2121L548.376+55.2161C548.376+53.6907+548.099+52.5554+547.544+51.8101C546.989+51.0647+546.14+50.6921+544.996+50.6921C543.679+50.6921+542.153+51.3507+540.42+52.6681C540.073+58.9081+539.9+62.8081+539.9+64.3681C539.9+65.2347+540.013+65.8414+540.238+66.1881C540.463+66.5347+540.871+66.7081+541.46+66.7081L542.864+66.6561L542.968+66.8641L542.448+70.0881C542.067+70.0534+541.347+70.0187+540.29+69.9841C539.233+69.9494+538.132+69.9321+536.988+69.9321C535.879+69.9321+534.674+69.9754+533.374+70.0621C532.074+70.1487+531.233+70.2094+530.852+70.2441L531.268+67.0201C532.273+66.9161+532.975+66.6474+533.374+66.2141C533.773+65.7807+533.972+65.0787+533.972+64.1081L533.972+53.0841C533.972+51.8707+533.79+51.0474+533.426+50.6141C533.062+50.1807+532.395+49.9641+531.424+49.9641L530.748+49.9641L530.54+49.7041L530.8+47.0001C532.776+46.7227+534.726+46.3934+536.65+46.0121C538.574+45.6307+539.813+45.3881+540.368+45.2841L540.784+45.8041C540.715+46.0121+540.611+46.4801+540.472+47.2081C540.333+47.9361+540.247+48.6641+540.212+49.3921L540.42+49.6001C541.495+48.6641+542.734+47.7194+544.138+46.7661C545.542+45.8127+546.556+45.3361+547.18+45.3361C549.641+45.3361+551.557+45.9254+552.926+47.1041C554.295+48.2827+554.98+49.9294+554.98+52.0441C554.98+52.5641+554.841+54.3841+554.564+57.5041C554.217+61.0401+554.044+63.3107+554.044+64.3161C554.044+65.2174+554.174+65.8587+554.434+66.2401C554.694+66.6214+555.101+66.8121+555.656+66.8121C556.003+66.8121+556.332+66.7947+556.644+66.7601C556.956+66.7254+557.164+66.7081+557.268+66.7081L557.372+66.9161L556.904+70.0881C556.488+70.0534+555.734+70.0187+554.642+69.9841C553.55+69.9494+552.432+69.9321+551.288+69.9321C550.456+69.9321+549.39+69.9927+548.09+70.1141C546.79+70.2354+545.932+70.3134+545.516+70.3481L545.776+67.1241Z" opacity="1" fill="#ab7c00"/>
<path d="M583.944+48.3001C582.107+48.4734+580.824+48.5774+580.096+48.6121L579.888+48.9241C581.275+50.4147+581.968+52.1307+581.968+54.0721C581.968+55.8054+581.483+57.3827+580.512+58.8041C579.541+60.2254+578.207+61.3347+576.508+62.1321C574.809+62.9294+572.903+63.3281+570.788+63.3281C569.644+63.3281+568.517+63.1894+567.408+62.9121C566.957+63.2934+566.637+63.6141+566.446+63.8741C566.255+64.1341+566.16+64.4027+566.16+64.6801C566.16+65.3387+566.663+65.8067+567.668+66.0841C568.673+66.3614+570.268+66.6214+572.452+66.8641C574.775+67.1067+576.681+67.3841+578.172+67.6961C579.663+68.0081+580.954+68.5714+582.046+69.3861C583.138+70.2007+583.684+71.3534+583.684+72.8441C583.684+74.4734+583.025+76.0334+581.708+77.5241C580.391+79.0147+578.675+80.2194+576.56+81.1381C574.445+82.0567+572.227+82.5161+569.904+82.5161C567.131+82.5161+564.912+81.8487+563.248+80.5141C561.584+79.1794+560.752+77.4027+560.752+75.1841C561.653+74.2481+563.387+72.9827+565.952+71.3881L565.952+71.0241C564.288+70.7467+562.997+70.1487+562.078+69.2301C561.159+68.3114+560.665+67.1414+560.596+65.7201C561.844+64.4374+563.265+63.2761+564.86+62.2361L564.86+61.9241C563.612+61.1961+562.641+60.2254+561.948+59.0121C561.255+57.7987+560.908+56.4294+560.908+54.9041C560.908+53.1014+561.376+51.4634+562.312+49.9901C563.248+48.5167+564.531+47.3641+566.16+46.5321C567.789+45.7001+569.627+45.2841+571.672+45.2841C572.539+45.2841+573.561+45.3881+574.74+45.5961C575.849+45.7347+576.612+45.8041+577.028+45.8041C578.276+45.7347+580.703+45.1627+584.308+44.0881L584.62+44.2961L583.944+48.3001ZM571.724+59.8961C572.972+59.8961+573.934+59.4627+574.61+58.5961C575.286+57.7294+575.624+56.4814+575.624+54.8521C575.624+53.1187+575.234+51.7321+574.454+50.6921C573.674+49.6521+572.573+49.1321+571.152+49.1321C569.939+49.1321+568.994+49.5567+568.318+50.4061C567.642+51.2554+567.304+52.5294+567.304+54.2281C567.304+55.9267+567.694+57.2961+568.474+58.3361C569.254+59.3761+570.337+59.8961+571.724+59.8961ZM569.176+71.7001C568.552+72.2201+568.067+72.8094+567.72+73.4681C567.373+74.1267+567.2+74.7854+567.2+75.4441C567.2+76.4494+567.607+77.2381+568.422+77.8101C569.237+78.3821+570.389+78.6681+571.88+78.6681C573.579+78.6681+575.009+78.2954+576.17+77.5501C577.331+76.8047+577.912+75.8947+577.912+74.8201C577.912+74.2654+577.704+73.8234+577.288+73.4941C576.872+73.1647+576.066+72.8701+574.87+72.6101C573.674+72.3501+571.776+72.0467+569.176+71.7001Z" opacity="1" fill="#ab7c00"/>
<path d="M620.708+70.7641C618.455+70.7641+616.565+69.1521+615.04+65.9281L610.516+56.7761L606.824+56.7761L606.72+62.6521C606.72+63.8654+606.807+64.7407+606.98+65.2781C607.153+65.8154+607.483+66.1707+607.968+66.3441C608.453+66.5174+609.285+66.6214+610.464+66.6561L610.62+66.9681L610.152+70.1401C609.528+70.1054+608.436+70.0707+606.876+70.0361C605.316+70.0014+603.877+69.9841+602.56+69.9841C601.277+69.9841+599.96+70.0187+598.608+70.0881C597.256+70.1574+596.372+70.2094+595.956+70.2441L596.424+66.8121C597.88+66.6387+598.859+66.2574+599.362+65.6681C599.865+65.0787+600.116+64.0387+600.116+62.5481L600.116+42.4241C600.116+41.4187+600.003+40.7427+599.778+40.3961C599.553+40.0494+599.111+39.8761+598.452+39.8761C598.071+39.8761+597.707+39.8934+597.36+39.9281C597.013+39.9627+596.788+39.9801+596.684+39.9801L596.372+39.5641L596.84+36.4441C597.325+36.4441+598.218+36.4614+599.518+36.4961C600.818+36.5307+602.092+36.5481+603.34+36.5481C604.727+36.5481+606.226+36.5221+607.838+36.4701C609.45+36.4181+610.568+36.3747+611.192+36.3401C615.144+36.3401+618.169+37.1027+620.266+38.6281C622.363+40.1534+623.412+42.3547+623.412+45.2321C623.412+47.2774+622.805+49.1494+621.592+50.8481C620.379+52.5467+618.645+53.9681+616.392+55.1121L620.968+62.5481C621.939+64.1427+622.875+65.2867+623.776+65.9801C624.677+66.6734+625.683+67.0201+626.792+67.0201L627.156+67.4881L626.792+70.1921L620.708+70.7641ZM611.66+52.7721C612.804+52.2867+613.844+51.5674+614.78+50.6141C615.716+49.6607+616.184+48.1787+616.184+46.1681C616.184+44.2614+615.543+42.8401+614.26+41.9041C612.977+40.9681+611.001+40.5001+608.332+40.5001C607.985+40.5001+607.751+40.5694+607.63+40.7081C607.509+40.8467+607.431+41.1587+607.396+41.6441C607.188+45.2147+607.049+48.7507+606.98+52.2521L611.66+52.7721Z" opacity="1" fill="#ab7c00"/>
<path d="M640.416+70.5561C636.776+70.5561+633.907+69.4901+631.81+67.3581C629.713+65.2261+628.664+62.3054+628.664+58.5961C628.664+56.1001+629.201+53.8467+630.276+51.8361C631.351+49.8254+632.824+48.2394+634.696+47.0781C636.568+45.9167+638.648+45.3361+640.936+45.3361C646.76+45.3361+649.672+48.2827+649.672+54.1761C649.672+55.2161+649.551+56.1867+649.308+57.0881L648.684+57.7121L635.216+57.7121C635.251+60.2427+635.849+62.1754+637.01+63.5101C638.171+64.8447+639.792+65.5121+641.872+65.5121C643.675+65.5121+645.737+64.9921+648.06+63.9521L648.424+64.1601L649.256+66.7081C647.973+67.6787+646.491+68.5627+644.81+69.3601C643.129+70.1574+641.664+70.5561+640.416+70.5561ZM642.34+54.4361C642.756+54.4014+643.025+54.3147+643.146+54.1761C643.267+54.0374+643.328+53.7254+643.328+53.2401C643.328+50.6747+642.236+49.3921+640.052+49.3921C638.7+49.3921+637.599+49.8601+636.75+50.7961C635.901+51.7321+635.389+53.0841+635.216+54.8521L642.34+54.4361Z" opacity="1" fill="#ab7c00"/>
<path d="M671.2+70.5561C669.675+70.5561+668.47+70.2181+667.586+69.5421C666.702+68.8661+666.173+67.8694+666+66.5521L665.584+66.3961C664.475+67.5401+663.4+68.4847+662.36+69.2301C661.32+69.9754+660.488+70.3481+659.864+70.3481C657.819+70.3481+656.12+69.6287+654.768+68.1901C653.416+66.7514+652.74+64.9574+652.74+62.8081C652.74+61.7334+653.017+60.8061+653.572+60.0261C654.127+59.2461+654.855+58.7347+655.756+58.4921L665.792+56.1521L665.844+54.9041C665.844+53.4134+665.445+52.2521+664.648+51.4201C663.851+50.5881+662.759+50.1721+661.372+50.1721C660.436+50.1721+659.422+50.4061+658.33+50.8741C657.238+51.3421+656.224+51.9227+655.288+52.6161L654.82+52.4081L653.936+49.2881C655.669+48.3174+657.489+47.4161+659.396+46.5841C661.303+45.7521+662.655+45.3361+663.452+45.3361C666.329+45.3361+668.487+45.9861+669.926+47.2861C671.365+48.5861+672.084+50.2934+672.084+52.4081C672.084+53.1707+671.928+54.7307+671.616+57.0881C671.235+60.4507+671.044+62.4614+671.044+63.1201C671.044+63.7787+671.217+64.2987+671.564+64.6801C671.911+65.0614+672.361+65.2521+672.916+65.2521C673.332+65.2521+673.774+65.1567+674.242+64.9661C674.71+64.7754+675.1+64.5761+675.412+64.3681L676.192+65.4601C675.568+66.5694+674.797+67.6354+673.878+68.6581C672.959+69.6807+672.067+70.3134+671.2+70.5561ZM661.788+65.4081C662.308+65.4081+662.923+65.2694+663.634+64.9921C664.345+64.7147+664.977+64.3507+665.532+63.9001L665.688+58.9601L660.124+60.5201C659.292+60.7281+658.876+61.3001+658.876+62.2361C658.876+63.1374+659.145+63.8914+659.682+64.4981C660.219+65.1047+660.921+65.4081+661.788+65.4081Z" opacity="1" fill="#ab7c00"/>
<path d="M689.244+70.5561C685.708+70.5561+682.917+69.4901+680.872+67.3581C678.827+65.2261+677.804+62.3054+677.804+58.5961C677.804+56.0307+678.341+53.7427+679.416+51.7321C680.491+49.7214+681.99+48.1527+683.914+47.0261C685.838+45.8994+688.013+45.3361+690.44+45.3361C691.584+45.3361+692.65+45.4141+693.638+45.5701C694.626+45.7261+695.406+45.8821+695.978+46.0381C696.55+46.1941+696.905+46.3067+697.044+46.3761L697.252+46.8441C697.217+47.0521+697.122+47.5287+696.966+48.2741C696.81+49.0194+696.645+49.9814+696.472+51.1601C696.299+52.3387+696.177+53.5694+696.108+54.8521L692.78+55.0601L692.78+53.3441C692.78+52.1654+692.494+51.2554+691.922+50.6141C691.35+49.9727+690.544+49.6521+689.504+49.6521C687.875+49.6521+686.635+50.2501+685.786+51.4461C684.937+52.6421+684.512+54.3494+684.512+56.5681C684.512+59.4107+685.015+61.5947+686.02+63.1201C687.025+64.6454+688.447+65.4081+690.284+65.4081C691.151+65.4081+691.991+65.2954+692.806+65.0701C693.621+64.8447+694.297+64.6107+694.834+64.3681C695.371+64.1254+695.709+63.9694+695.848+63.9001L696.212+64.0561L697.044+66.7081C696.801+66.9161+696.247+67.3234+695.38+67.9301C694.513+68.5367+693.508+69.1261+692.364+69.6981C691.22+70.2701+690.18+70.5561+689.244+70.5561Z" opacity="1" fill="#ab7c00"/>
<path d="M709.576+70.5561C707.115+70.5561+705.312+70.0447+704.168+69.0221C703.024+67.9994+702.452+66.3787+702.452+64.1601L702.452+52.5641C702.452+51.4547+702.261+50.7181+701.88+50.3541C701.499+49.9901+700.753+49.7907+699.644+49.7561L699.124+49.3921L699.488+46.8441C700.805+46.2201+702.105+45.5007+703.388+44.6861C704.671+43.8714+705.737+43.1521+706.586+42.5281C707.435+41.9041+707.964+41.5054+708.172+41.3321L709.628+42.0601C709.593+42.2681+709.515+42.7707+709.394+43.5681C709.273+44.3654+709.16+45.3534+709.056+46.5321L715.192+46.3761L715.4+46.6361L714.88+50.1201L708.744+49.9641C708.536+52.9801+708.432+56.7587+708.432+61.3001C708.432+62.7907+708.692+63.8654+709.212+64.5241C709.732+65.1827+710.581+65.5121+711.76+65.5121C712.384+65.5121+713.017+65.4081+713.658+65.2001C714.299+64.9921+714.707+64.8534+714.88+64.7841L715.556+66.4481C715.348+66.6561+714.854+67.0894+714.074+67.7481C713.294+68.4067+712.462+69.0394+711.578+69.6461C710.694+70.2527+710.027+70.5561+709.576+70.5561Z" opacity="1" fill="#ab7c00"/>
<path d="M745.04+70.5561C743.515+70.5561+742.31+70.2181+741.426+69.5421C740.542+68.8661+740.013+67.8694+739.84+66.5521L739.424+66.3961C738.315+67.5401+737.24+68.4847+736.2+69.2301C735.16+69.9754+734.328+70.3481+733.704+70.3481C731.659+70.3481+729.96+69.6287+728.608+68.1901C727.256+66.7514+726.58+64.9574+726.58+62.8081C726.58+61.7334+726.857+60.8061+727.412+60.0261C727.967+59.2461+728.695+58.7347+729.596+58.4921L739.632+56.1521L739.684+54.9041C739.684+53.4134+739.285+52.2521+738.488+51.4201C737.691+50.5881+736.599+50.1721+735.212+50.1721C734.276+50.1721+733.262+50.4061+732.17+50.8741C731.078+51.3421+730.064+51.9227+729.128+52.6161L728.66+52.4081L727.776+49.2881C729.509+48.3174+731.329+47.4161+733.236+46.5841C735.143+45.7521+736.495+45.3361+737.292+45.3361C740.169+45.3361+742.327+45.9861+743.766+47.2861C745.205+48.5861+745.924+50.2934+745.924+52.4081C745.924+53.1707+745.768+54.7307+745.456+57.0881C745.075+60.4507+744.884+62.4614+744.884+63.1201C744.884+63.7787+745.057+64.2987+745.404+64.6801C745.751+65.0614+746.201+65.2521+746.756+65.2521C747.172+65.2521+747.614+65.1567+748.082+64.9661C748.55+64.7754+748.94+64.5761+749.252+64.3681L750.032+65.4601C749.408+66.5694+748.637+67.6354+747.718+68.6581C746.799+69.6807+745.907+70.3134+745.04+70.5561ZM735.628+65.4081C736.148+65.4081+736.763+65.2694+737.474+64.9921C738.185+64.7147+738.817+64.3507+739.372+63.9001L739.528+58.9601L733.964+60.5201C733.132+60.7281+732.716+61.3001+732.716+62.2361C732.716+63.1374+732.985+63.8914+733.522+64.4981C734.059+65.1047+734.761+65.4081+735.628+65.4081Z" opacity="1" fill="#ab7c00"/>
<path d="M766.88+67.1241C767.747+66.9507+768.362+66.6387+768.726+66.1881C769.09+65.7374+769.289+65.0787+769.324+64.2121L769.48+55.2161C769.48+53.6907+769.203+52.5554+768.648+51.8101C768.093+51.0647+767.244+50.6921+766.1+50.6921C764.783+50.6921+763.257+51.3507+761.524+52.6681C761.177+58.9081+761.004+62.8081+761.004+64.3681C761.004+65.2347+761.117+65.8414+761.342+66.1881C761.567+66.5347+761.975+66.7081+762.564+66.7081L763.968+66.6561L764.072+66.8641L763.552+70.0881C763.171+70.0534+762.451+70.0187+761.394+69.9841C760.337+69.9494+759.236+69.9321+758.092+69.9321C756.983+69.9321+755.778+69.9754+754.478+70.0621C753.178+70.1487+752.337+70.2094+751.956+70.2441L752.372+67.0201C753.377+66.9161+754.079+66.6474+754.478+66.2141C754.877+65.7807+755.076+65.0787+755.076+64.1081L755.076+53.0841C755.076+51.8707+754.894+51.0474+754.53+50.6141C754.166+50.1807+753.499+49.9641+752.528+49.9641L751.852+49.9641L751.644+49.7041L751.904+47.0001C753.88+46.7227+755.83+46.3934+757.754+46.0121C759.678+45.6307+760.917+45.3881+761.472+45.2841L761.888+45.8041C761.819+46.0121+761.715+46.4801+761.576+47.2081C761.437+47.9361+761.351+48.6641+761.316+49.3921L761.524+49.6001C762.599+48.6641+763.838+47.7194+765.242+46.7661C766.646+45.8127+767.66+45.3361+768.284+45.3361C770.745+45.3361+772.661+45.9254+774.03+47.1041C775.399+48.2827+776.084+49.9294+776.084+52.0441C776.084+52.5641+775.945+54.3841+775.668+57.5041C775.321+61.0401+775.148+63.3107+775.148+64.3161C775.148+65.2174+775.278+65.8587+775.538+66.2401C775.798+66.6214+776.205+66.8121+776.76+66.8121C777.107+66.8121+777.436+66.7947+777.748+66.7601C778.06+66.7254+778.268+66.7081+778.372+66.7081L778.476+66.9161L778.008+70.0881C777.592+70.0534+776.838+70.0187+775.746+69.9841C774.654+69.9494+773.536+69.9321+772.392+69.9321C771.56+69.9321+770.494+69.9927+769.194+70.1141C767.894+70.2354+767.036+70.3134+766.62+70.3481L766.88+67.1241Z" opacity="1" fill="#ab7c00"/>
<path d="M802.344+70.5561C799.259+70.5561+797.525+69.3081+797.144+66.8121L796.832+66.7081C793.469+69.1347+791.441+70.3481+790.748+70.3481C787.732+70.3481+785.331+69.3254+783.546+67.2801C781.761+65.2347+780.868+62.4614+780.868+58.9601C780.868+56.3947+781.431+54.0807+782.558+52.0181C783.685+49.9554+785.245+48.3434+787.238+47.1821C789.231+46.0207+791.476+45.4401+793.972+45.4401C794.804+45.4401+795.705+45.4921+796.676+45.5961L796.676+38.8881C796.676+37.8134+796.511+37.0594+796.182+36.6261C795.853+36.1927+795.289+35.9761+794.492+35.9761C794.215+35.9761+793.955+35.9934+793.712+36.0281C793.469+36.0627+793.313+36.0974+793.244+36.1321L793.556+33.0641C795.601+32.8214+797.664+32.5094+799.744+32.1281C801.824+31.7467+803.176+31.4867+803.8+31.3481L804.268+32.2321C803.817+32.8907+803.436+36.2707+803.124+42.3721C802.812+48.4734+802.656+55.3894+802.656+63.1201C802.656+63.7787+802.803+64.2987+803.098+64.6801C803.393+65.0614+803.8+65.2521+804.32+65.2521C804.701+65.2521+805.065+65.1827+805.412+65.0441C805.759+64.9054+806.045+64.7667+806.27+64.6281C806.495+64.4894+806.643+64.4027+806.712+64.3681L807.544+65.4601C807.44+65.6681+807.145+66.1187+806.66+66.8121C806.175+67.5054+805.542+68.2334+804.762+68.9961C803.982+69.7587+803.176+70.2787+802.344+70.5561ZM792.672+65.5641C793.227+65.5641+793.807+65.4341+794.414+65.1741C795.021+64.9141+795.523+64.6454+795.922+64.3681C796.321+64.0907+796.572+63.9001+796.676+63.7961L796.676+50.6401C796.607+50.6054+796.399+50.5187+796.052+50.3801C795.705+50.2414+795.255+50.1027+794.7+49.9641C794.145+49.8254+793.521+49.7561+792.828+49.7561C791.129+49.7561+789.812+50.3887+788.876+51.6541C787.94+52.9194+787.472+54.7134+787.472+57.0361C787.472+59.6014+787.949+61.6641+788.902+63.2241C789.855+64.7841+791.112+65.5641+792.672+65.5641Z" opacity="1" fill="#ab7c00"/>
<path d="M843.216+70.7641C840.963+70.7641+839.073+69.1521+837.548+65.9281L833.024+56.7761L829.332+56.7761L829.228+62.6521C829.228+63.8654+829.315+64.7407+829.488+65.2781C829.661+65.8154+829.991+66.1707+830.476+66.3441C830.961+66.5174+831.793+66.6214+832.972+66.6561L833.128+66.9681L832.66+70.1401C832.036+70.1054+830.944+70.0707+829.384+70.0361C827.824+70.0014+826.385+69.9841+825.068+69.9841C823.785+69.9841+822.468+70.0187+821.116+70.0881C819.764+70.1574+818.88+70.2094+818.464+70.2441L818.932+66.8121C820.388+66.6387+821.367+66.2574+821.87+65.6681C822.373+65.0787+822.624+64.0387+822.624+62.5481L822.624+42.4241C822.624+41.4187+822.511+40.7427+822.286+40.3961C822.061+40.0494+821.619+39.8761+820.96+39.8761C820.579+39.8761+820.215+39.8934+819.868+39.9281C819.521+39.9627+819.296+39.9801+819.192+39.9801L818.88+39.5641L819.348+36.4441C819.833+36.4441+820.726+36.4614+822.026+36.4961C823.326+36.5307+824.6+36.5481+825.848+36.5481C827.235+36.5481+828.734+36.5221+830.346+36.4701C831.958+36.4181+833.076+36.3747+833.7+36.3401C837.652+36.3401+840.677+37.1027+842.774+38.6281C844.871+40.1534+845.92+42.3547+845.92+45.2321C845.92+47.2774+845.313+49.1494+844.1+50.8481C842.887+52.5467+841.153+53.9681+838.9+55.1121L843.476+62.5481C844.447+64.1427+845.383+65.2867+846.284+65.9801C847.185+66.6734+848.191+67.0201+849.3+67.0201L849.664+67.4881L849.3+70.1921L843.216+70.7641ZM834.168+52.7721C835.312+52.2867+836.352+51.5674+837.288+50.6141C838.224+49.6607+838.692+48.1787+838.692+46.1681C838.692+44.2614+838.051+42.8401+836.768+41.9041C835.485+40.9681+833.509+40.5001+830.84+40.5001C830.493+40.5001+830.259+40.5694+830.138+40.7081C830.017+40.8467+829.939+41.1587+829.904+41.6441C829.696+45.2147+829.557+48.7507+829.488+52.2521L834.168+52.7721Z" opacity="1" fill="#ab7c00"/>
<path d="M862.924+70.5561C859.284+70.5561+856.415+69.4901+854.318+67.3581C852.221+65.2261+851.172+62.3054+851.172+58.5961C851.172+56.1001+851.709+53.8467+852.784+51.8361C853.859+49.8254+855.332+48.2394+857.204+47.0781C859.076+45.9167+861.156+45.3361+863.444+45.3361C869.268+45.3361+872.18+48.2827+872.18+54.1761C872.18+55.2161+872.059+56.1867+871.816+57.0881L871.192+57.7121L857.724+57.7121C857.759+60.2427+858.357+62.1754+859.518+63.5101C860.679+64.8447+862.3+65.5121+864.38+65.5121C866.183+65.5121+868.245+64.9921+870.568+63.9521L870.932+64.1601L871.764+66.7081C870.481+67.6787+868.999+68.5627+867.318+69.3601C865.637+70.1574+864.172+70.5561+862.924+70.5561ZM864.848+54.4361C865.264+54.4014+865.533+54.3147+865.654+54.1761C865.775+54.0374+865.836+53.7254+865.836+53.2401C865.836+50.6747+864.744+49.3921+862.56+49.3921C861.208+49.3921+860.107+49.8601+859.258+50.7961C858.409+51.7321+857.897+53.0841+857.724+54.8521L864.848+54.4361Z" opacity="1" fill="#ab7c00"/>
<path d="M893.708+70.5561C892.183+70.5561+890.978+70.2181+890.094+69.5421C889.21+68.8661+888.681+67.8694+888.508+66.5521L888.092+66.3961C886.983+67.5401+885.908+68.4847+884.868+69.2301C883.828+69.9754+882.996+70.3481+882.372+70.3481C880.327+70.3481+878.628+69.6287+877.276+68.1901C875.924+66.7514+875.248+64.9574+875.248+62.8081C875.248+61.7334+875.525+60.8061+876.08+60.0261C876.635+59.2461+877.363+58.7347+878.264+58.4921L888.3+56.1521L888.352+54.9041C888.352+53.4134+887.953+52.2521+887.156+51.4201C886.359+50.5881+885.267+50.1721+883.88+50.1721C882.944+50.1721+881.93+50.4061+880.838+50.8741C879.746+51.3421+878.732+51.9227+877.796+52.6161L877.328+52.4081L876.444+49.2881C878.177+48.3174+879.997+47.4161+881.904+46.5841C883.811+45.7521+885.163+45.3361+885.96+45.3361C888.837+45.3361+890.995+45.9861+892.434+47.2861C893.873+48.5861+894.592+50.2934+894.592+52.4081C894.592+53.1707+894.436+54.7307+894.124+57.0881C893.743+60.4507+893.552+62.4614+893.552+63.1201C893.552+63.7787+893.725+64.2987+894.072+64.6801C894.419+65.0614+894.869+65.2521+895.424+65.2521C895.84+65.2521+896.282+65.1567+896.75+64.9661C897.218+64.7754+897.608+64.5761+897.92+64.3681L898.7+65.4601C898.076+66.5694+897.305+67.6354+896.386+68.6581C895.467+69.6807+894.575+70.3134+893.708+70.5561ZM884.296+65.4081C884.816+65.4081+885.431+65.2694+886.142+64.9921C886.853+64.7147+887.485+64.3507+888.04+63.9001L888.196+58.9601L882.632+60.5201C881.8+60.7281+881.384+61.3001+881.384+62.2361C881.384+63.1374+881.653+63.8914+882.19+64.4981C882.727+65.1047+883.429+65.4081+884.296+65.4081Z" opacity="1" fill="#ab7c00"/>
<path d="M911.752+70.5561C908.216+70.5561+905.425+69.4901+903.38+67.3581C901.335+65.2261+900.312+62.3054+900.312+58.5961C900.312+56.0307+900.849+53.7427+901.924+51.7321C902.999+49.7214+904.498+48.1527+906.422+47.0261C908.346+45.8994+910.521+45.3361+912.948+45.3361C914.092+45.3361+915.158+45.4141+916.146+45.5701C917.134+45.7261+917.914+45.8821+918.486+46.0381C919.058+46.1941+919.413+46.3067+919.552+46.3761L919.76+46.8441C919.725+47.0521+919.63+47.5287+919.474+48.2741C919.318+49.0194+919.153+49.9814+918.98+51.1601C918.807+52.3387+918.685+53.5694+918.616+54.8521L915.288+55.0601L915.288+53.3441C915.288+52.1654+915.002+51.2554+914.43+50.6141C913.858+49.9727+913.052+49.6521+912.012+49.6521C910.383+49.6521+909.143+50.2501+908.294+51.4461C907.445+52.6421+907.02+54.3494+907.02+56.5681C907.02+59.4107+907.523+61.5947+908.528+63.1201C909.533+64.6454+910.955+65.4081+912.792+65.4081C913.659+65.4081+914.499+65.2954+915.314+65.0701C916.129+64.8447+916.805+64.6107+917.342+64.3681C917.879+64.1254+918.217+63.9694+918.356+63.9001L918.72+64.0561L919.552+66.7081C919.309+66.9161+918.755+67.3234+917.888+67.9301C917.021+68.5367+916.016+69.1261+914.872+69.6981C913.728+70.2701+912.688+70.5561+911.752+70.5561Z" opacity="1" fill="#ab7c00"/>
<path d="M932.084+70.5561C929.623+70.5561+927.82+70.0447+926.676+69.0221C925.532+67.9994+924.96+66.3787+924.96+64.1601L924.96+52.5641C924.96+51.4547+924.769+50.7181+924.388+50.3541C924.007+49.9901+923.261+49.7907+922.152+49.7561L921.632+49.3921L921.996+46.8441C923.313+46.2201+924.613+45.5007+925.896+44.6861C927.179+43.8714+928.245+43.1521+929.094+42.5281C929.943+41.9041+930.472+41.5054+930.68+41.3321L932.136+42.0601C932.101+42.2681+932.023+42.7707+931.902+43.5681C931.781+44.3654+931.668+45.3534+931.564+46.5321L937.7+46.3761L937.908+46.6361L937.388+50.1201L931.252+49.9641C931.044+52.9801+930.94+56.7587+930.94+61.3001C930.94+62.7907+931.2+63.8654+931.72+64.5241C932.24+65.1827+933.089+65.5121+934.268+65.5121C934.892+65.5121+935.525+65.4081+936.166+65.2001C936.807+64.9921+937.215+64.8534+937.388+64.7841L938.064+66.4481C937.856+66.6561+937.362+67.0894+936.582+67.7481C935.802+68.4067+934.97+69.0394+934.086+69.6461C933.202+70.2527+932.535+70.5561+932.084+70.5561Z" opacity="1" fill="#ab7c00"/>
<path d="M975.088+71.3361C971.691+65.9281+968.267+60.6587+964.818+55.5281C961.369+50.3974+959.644+47.8667+959.644+47.9361L959.176+47.9361L959.124+64.3161C959.124+65.2174+959.254+65.8327+959.514+66.1621C959.774+66.4914+960.233+66.6561+960.892+66.6561L963.18+66.5521L963.44+66.8641L962.92+70.1401C962.435+70.1054+961.533+70.0621+960.216+70.0101C958.899+69.9581+957.581+69.9321+956.264+69.9321C955.12+69.9321+953.889+69.9927+952.572+70.1141C951.255+70.2354+950.405+70.3134+950.024+70.3481L950.388+66.9161C951.463+66.7774+952.243+66.4567+952.728+65.9541C953.213+65.4514+953.473+64.6801+953.508+63.6401L954.132+42.9961C954.132+41.8867+953.855+41.1067+953.3+40.6561C952.745+40.2054+951.619+39.8934+949.92+39.7201L949.556+39.2521L949.92+36.2881C950.301+36.3227+951.116+36.3747+952.364+36.4441C953.612+36.5134+954.773+36.5481+955.848+36.5481C956.749+36.5481+957.711+36.5221+958.734+36.4701C959.757+36.4181+960.424+36.3747+960.736+36.3401C963.579+40.9854+966.638+45.7694+969.914+50.6921C973.19+55.6147+974.828+58.0414+974.828+57.9721L975.348+57.9721L975.244+42.1121C975.209+41.3147+975.062+40.7427+974.802+40.3961C974.542+40.0494+974.117+39.8761+973.528+39.8761L971.708+39.9281L971.552+39.5641L971.916+36.3401C972.401+36.3747+973.294+36.4181+974.594+36.4701C975.894+36.5221+977.203+36.5481+978.52+36.5481C979.56+36.5481+980.73+36.5134+982.03+36.4441C983.33+36.3747+984.188+36.3227+984.604+36.2881L984.344+39.7201C983.165+39.8934+982.325+40.2227+981.822+40.7081C981.319+41.1934+981.051+41.9561+981.016+42.9961L980.34+70.6601L975.088+71.3361Z" opacity="1" fill="#ab7c00"/>
<path d="M1005.4+70.5561C1003.88+70.5561+1002.67+70.2181+1001.79+69.5421C1000.91+68.8661+1000.38+67.8694+1000.2+66.5521L999.788+66.3961C998.679+67.5401+997.604+68.4847+996.564+69.2301C995.524+69.9754+994.692+70.3481+994.068+70.3481C992.023+70.3481+990.324+69.6287+988.972+68.1901C987.62+66.7514+986.944+64.9574+986.944+62.8081C986.944+61.7334+987.221+60.8061+987.776+60.0261C988.331+59.2461+989.059+58.7347+989.96+58.4921L999.996+56.1521L1000.05+54.9041C1000.05+53.4134+999.649+52.2521+998.852+51.4201C998.055+50.5881+996.963+50.1721+995.576+50.1721C994.64+50.1721+993.626+50.4061+992.534+50.8741C991.442+51.3421+990.428+51.9227+989.492+52.6161L989.024+52.4081L988.14+49.2881C989.873+48.3174+991.693+47.4161+993.6+46.5841C995.507+45.7521+996.859+45.3361+997.656+45.3361C1000.53+45.3361+1002.69+45.9861+1004.13+47.2861C1005.57+48.5861+1006.29+50.2934+1006.29+52.4081C1006.29+53.1707+1006.13+54.7307+1005.82+57.0881C1005.44+60.4507+1005.25+62.4614+1005.25+63.1201C1005.25+63.7787+1005.42+64.2987+1005.77+64.6801C1006.11+65.0614+1006.57+65.2521+1007.12+65.2521C1007.54+65.2521+1007.98+65.1567+1008.45+64.9661C1008.91+64.7754+1009.3+64.5761+1009.62+64.3681L1010.4+65.4601C1009.77+66.5694+1009+67.6354+1008.08+68.6581C1007.16+69.6807+1006.27+70.3134+1005.4+70.5561ZM995.992+65.4081C996.512+65.4081+997.127+65.2694+997.838+64.9921C998.549+64.7147+999.181+64.3507+999.736+63.9001L999.892+58.9601L994.328+60.5201C993.496+60.7281+993.08+61.3001+993.08+62.2361C993.08+63.1374+993.349+63.8914+993.886+64.4981C994.423+65.1047+995.125+65.4081+995.992+65.4081Z" opacity="1" fill="#ab7c00"/>
<path d="M1021.37+70.5561C1018.91+70.5561+1017.1+70.0447+1015.96+69.0221C1014.82+67.9994+1014.24+66.3787+1014.24+64.1601L1014.24+52.5641C1014.24+51.4547+1014.05+50.7181+1013.67+50.3541C1013.29+49.9901+1012.55+49.7907+1011.44+49.7561L1010.92+49.3921L1011.28+46.8441C1012.6+46.2201+1013.9+45.5007+1015.18+44.6861C1016.46+43.8714+1017.53+43.1521+1018.38+42.5281C1019.23+41.9041+1019.76+41.5054+1019.96+41.3321L1021.42+42.0601C1021.39+42.2681+1021.31+42.7707+1021.19+43.5681C1021.06+44.3654+1020.95+45.3534+1020.85+46.5321L1026.98+46.3761L1027.19+46.6361L1026.67+50.1201L1020.54+49.9641C1020.33+52.9801+1020.22+56.7587+1020.22+61.3001C1020.22+62.7907+1020.48+63.8654+1021+64.5241C1021.52+65.1827+1022.37+65.5121+1023.55+65.5121C1024.18+65.5121+1024.81+65.4081+1025.45+65.2001C1026.09+64.9921+1026.5+64.8534+1026.67+64.7841L1027.35+66.4481C1027.14+66.6561+1026.65+67.0894+1025.87+67.7481C1025.09+68.4067+1024.25+69.0394+1023.37+69.6461C1022.49+70.2527+1021.82+70.5561+1021.37+70.5561Z" opacity="1" fill="#ab7c00"/>
<path d="M1029.74+67.2281C1030.75+67.0547+1031.48+66.7167+1031.95+66.2141C1032.42+65.7114+1032.65+64.9747+1032.65+64.0041L1032.65+52.7721C1032.65+51.6627+1032.5+50.9001+1032.18+50.4841C1031.87+50.0681+1031.3+49.8601+1030.47+49.8601C1030.23+49.8601+1029.98+49.8774+1029.74+49.9121C1029.5+49.9467+1029.34+49.9814+1029.27+50.0161L1029.58+47.0521C1031.53+46.7747+1033.5+46.4541+1035.51+46.0901C1037.52+45.7261+1038.82+45.4747+1039.41+45.3361L1039.88+46.1681C1039.5+46.9307+1039.2+49.0194+1038.97+52.4341C1038.74+55.8487+1038.63+59.8614+1038.63+64.4721C1038.63+65.3041+1038.75+65.8934+1039+66.2401C1039.24+66.5867+1039.65+66.7601+1040.24+66.7601C1040.56+66.7601+1040.86+66.7427+1041.15+66.7081C1041.45+66.6734+1041.65+66.6561+1041.75+66.6561L1041.91+66.9161L1041.39+70.0881C1041.01+70.0534+1040.25+70.0187+1039.13+69.9841C1038+69.9494+1036.85+69.9321+1035.67+69.9321C1034.59+69.9321+1033.37+70.0101+1032+70.1661C1030.63+70.3221+1029.74+70.4347+1029.32+70.5041L1029.74+67.2281ZM1035.2+40.8641C1034.06+40.8641+1033.17+40.5347+1032.55+39.8761C1031.92+39.2174+1031.61+38.3334+1031.61+37.2241C1031.61+35.9761+1031.98+34.9707+1032.73+34.2081C1033.48+33.4454+1034.47+33.0641+1035.72+33.0641C1036.83+33.0641+1037.7+33.4021+1038.32+34.0781C1038.94+34.7541+1039.26+35.6467+1039.26+36.7561C1039.26+37.9694+1038.88+38.9574+1038.14+39.7201C1037.39+40.4827+1036.41+40.8641+1035.2+40.8641Z" opacity="1" fill="#ab7c00"/>
<path d="M1051.32+70.7121C1050.87+69.0827+1049.98+65.9021+1048.64+61.1701C1047.31+56.4381+1046.38+53.2574+1045.86+51.6281C1045.34+49.9641+1044.27+49.0974+1042.64+49.0281L1042.53+48.8201L1042.9+45.9081L1047.78+45.9601C1049.21+45.9601+1050.64+45.9081+1052.07+45.8041C1053.51+45.7001+1054.44+45.6307+1054.86+45.5961L1054.96+45.8561L1054.49+48.8201C1053.42+48.9241+1052.72+49.0627+1052.41+49.2361C1052.1+49.4094+1051.94+49.7214+1051.94+50.1721C1051.94+50.7614+1052.4+52.8934+1053.32+56.5681C1054.24+60.2427+1054.87+62.7387+1055.22+64.0561L1055.74+64.0561C1057.44+59.3761+1058.63+56.0047+1059.33+53.9421C1060.02+51.8794+1060.37+50.6054+1060.37+50.1201C1060.37+49.7041+1060.25+49.4267+1060+49.2881C1059.76+49.1494+1059.31+49.0801+1058.65+49.0801L1057.2+49.0801L1056.99+48.7161L1057.35+45.9081L1063.07+45.9601L1067.8+45.9081L1067.39+49.0281C1066.63+49.1321+1066.07+49.3661+1065.72+49.7301C1065.38+50.0941+1064.98+50.8827+1064.53+52.0961L1057.98+69.9321L1051.32+70.7121Z" opacity="1" fill="#ab7c00"/>
<path d="M1080.44+70.5561C1076.8+70.5561+1073.93+69.4901+1071.83+67.3581C1069.74+65.2261+1068.69+62.3054+1068.69+58.5961C1068.69+56.1001+1069.23+53.8467+1070.3+51.8361C1071.37+49.8254+1072.85+48.2394+1074.72+47.0781C1076.59+45.9167+1078.67+45.3361+1080.96+45.3361C1086.78+45.3361+1089.7+48.2827+1089.7+54.1761C1089.7+55.2161+1089.57+56.1867+1089.33+57.0881L1088.71+57.7121L1075.24+57.7121C1075.27+60.2427+1075.87+62.1754+1077.03+63.5101C1078.2+64.8447+1079.82+65.5121+1081.9+65.5121C1083.7+65.5121+1085.76+64.9921+1088.08+63.9521L1088.45+64.1601L1089.28+66.7081C1088+67.6787+1086.52+68.5627+1084.83+69.3601C1083.15+70.1574+1081.69+70.5561+1080.44+70.5561ZM1082.36+54.4361C1082.78+54.4014+1083.05+54.3147+1083.17+54.1761C1083.29+54.0374+1083.35+53.7254+1083.35+53.2401C1083.35+50.6747+1082.26+49.3921+1080.08+49.3921C1078.72+49.3921+1077.62+49.8601+1076.77+50.7961C1075.92+51.7321+1075.41+53.0841+1075.24+54.8521L1082.36+54.4361Z" opacity="1" fill="#ab7c00"/>
</g>
<g opacity="1" vectornator:mask="#Mask">
<use xlink:href="#Mask" fill="#ffffff" stroke="none"/>
<clipPath id="ClipPath">
<use xlink:href="#Mask" fill="none" overflow="visible"/>
</clipPath>
<g clip-path="url(#ClipPath)">
<g opacity="1">
<path d="M70.9038+23.9749C70.1803+25.2653+67.622+31.8999+66.9936+33.6057C65.5872+37.423+65.0762+41.7978+65.2655+46.9822C65.3805+50.1288+65.6958+53.0657+66.3536+57.88C66.4016+58.2315+66.5918+59.6199+66.6387+59.963C66.9333+62.1205+67.5059+64.1266+68.326+65.764C69.8069+65.7797+70.426+77.8216+72.4504+77.8749C72.7154+77.9128+88.9607+67.6106+88.9607+67.6106C88.9607+67.6106+83.2983+51.7024+83.4308+47.3865C83.5633+43.0707+72.4063+23.9191+70.9038+23.9749Z" opacity="1" fill="#4a145c"/>
<path d="M69.13+29.1611C68.557+29.1813+72.0824+24.0442+71.7374+24.0442L62.0076+23.2356L59.2496+32.5106L59.5283+32.9651L61.291+32.9074C62.1238+32.9074+62.6731+33.1024+62.9381+33.4999C63.2031+33.8974+63.3349+34.6841+63.3348+35.8577C63.3348+35.8577+61.2161+36.004+59.8067+36.0654L56.7949+40.9543L54.8123+44.9759C55.123+47.0514+60.0736+48.474+60.9541+49.4355L61.2201+49.4538L63.3348+49.5999L63.3348+51.6011C63.8823+52.0028+64.9946+52.8528+65.9487+53.2131C65.6923+50.9402+65.5226+48.9334+65.4516+46.9886C65.2614+41.7819+65.7707+37.3857+67.1866+33.5426C67.8022+31.8718+68.4232+30.4369+69.13+29.1611Z" opacity="1" fill="#882aa7"/>
<path d="M58.5993+44.9547C57.8995+44.9833+57.2181+45.005+56.578+45.005C56.578+45.0049+54.3893+47.3903+54.524+47.3903L57.0902+49.5472L56.2737+59.0944L56.7253+80.332L74.6152+79.3778L69.8604+65.92L67.4265+64.4359L63.3348+49.5999C63.2147+49.467+60.9184+49.421+60.8031+49.2685C60.0902+48.3256+59.485+47.457+59.1592+46.5316C59.0906+46.3369+59.0516+46.2327+58.8981+45.811C58.7805+45.4881+58.6904+45.2229+58.5993+44.9547Z" opacity="1" fill="#641b7c"/>
<path d="M63.3348+51.6011L63.3348+56.9268C63.3348+58.3275+63.223+59.4+62.9959+60.1383C62.7687+60.8765+62.3624+61.3947+61.7756+61.6975C61.1888+62.0004+60.3475+62.1719+59.2496+62.2098L58.7901+65.8456L66.6267+65.7301C67.0978+65.7301+67.9291+65.7524+68.4772+65.7577C67.6753+64.1192+67.1213+62.1251+66.83+59.9926C66.7832+59.6496+66.5868+58.2552+66.5388+57.9035C66.2918+56.0954+66.1065+54.6028+65.9487+53.2131C65.6421+53.0594+65.3396+52.8971+65.0423+52.7235C64.4367+52.37+63.8714+51.9924+63.3348+51.6011Z" opacity="1" fill="#641b7c"/>
<path d="M49.9748+44.8992C48.0274+46.0153+45.8176+46.3381+43.0858+45.7778C42.6197+45.6821+21.2545+35.3897+20.7123+35.1405L25.284+44.3424C15.9586+47.3865+41.7162+49.5951+41.7526+49.6306C42.8697+50.722+43.7707+52.0524+44.4938+53.5802C44.8758+53.5584+46.6868+55.3972+47.0365+55.3781C48.1998+55.3147+47.9251+53.4039+48.9566+53.3591L54.6523+52.8635C51.5937+55.803+49.2215+62.8474+48.9328+66.7749C48.8357+68.0949+32.6592+75.877+33.0859+76.2188C34.0973+77.0289+58.7087+80.7019+58.7901+80.5896C59.0051+80.2927+56.2991+60.1879+56.4606+58.469C56.8042+54.8113+57.0214+49.5481+57.0907+49.5481C57.0907+49.5481+56.8886+47.3865+56.5787+45.0039L49.9748+44.8992Z" opacity="1" fill="#ff5959"/>
<path d="M50.0403+21.7902C48.5932+21.8584+37.1627+26.8348+37.1627+26.8348C37.1627+26.8348+28.1431+32.7056+28.4081+33.1031C28.6731+33.5006+25.284+39.1278+25.284+40.3014L41.6428+40.9543C42.6683+39.0937+43.9897+36.8652+45.4422+34.333C45.6224+34.0189+45.8206+33.6888+46.0939+33.2391C46.1443+33.1561+46.683+32.2702+46.7863+32.0987C47.4028+31.0749+47.8927+30.0248+48.2721+29.2123C48.2812+29.1929+50.0313+21.8093+50.0403+21.7902Z" opacity="1" fill="#09d7ff"/>
<path d="M41.0531+52.0019C41.1917+52.2935+51.8941+62.6317+52.8785+63.0174C52.827+62.4685+55.4737+51.7284+55.4737+51.7284C55.4737+51.7284+41.5614+51.9729+41.0531+52.0019Z" opacity="1" fill="#ff00c6"/>
<path d="M23.7269+53.2131L41.6428+53.1729C42.2293+53.1406+42.5264+53.1352+43.1905+53.0973C43.7411+53.0658+43.9396+53.0537+44.296+53.0333C44.5413+47.3627+27.8785+42.5541+22.3223+45.765C20.7734+46.6602+23.7269+51.6686+23.7269+53.2131Z" opacity="1" fill="#967aff"/>
<path d="M44.2844+52.5003C43.9321+52.5204+43.7399+52.5335+43.2022+52.5643C42.5356+52.6024+42.237+52.6132+41.6487+52.6457C41.6487+52.6457+20.8651+52.4063+19.2372+52.7092L33.0859+76.2188C34.0323+76.1052+48.9249+69.3079+52.948+64.62L53.46+61.0475C53.46+61.0475+49.0256+59.2233+48.9507+58.5572C48.1315+58.2527+47.3394+57.744+46.6292+56.9746C46.0827+56.3826+45.66+55.6343+45.1862+54.5367C45.0642+54.254+44.6789+53.3136+44.6451+53.2334C44.5366+52.9756+44.403+52.7466+44.2844+52.5003Z" opacity="1" fill="#ffb900"/>
<path d="M56.7581+23.1438C54.7985+23.2685+51.4043+21.7246+50.0403+21.7902C49.6495+22.6394+47.4189+30.9163+46.763+32.0056C46.6595+32.1775+46.1152+33.069+46.0648+33.1518C45.7923+33.6003+45.5982+33.9274+45.419+34.2399C43.8938+36.8988+42.7004+39.0282+41.6428+40.9543C41.6374+40.9642+23.7323+40.2915+23.7269+40.3014L41.6428+45.2657C42.2149+45.5351+43.2214+46.057+43.6929+46.1537C46.2342+46.675+48.1231+45.9979+49.9748+44.8992L49.1369+44.8875L54.981+45.3809C55.0567+44.283+56.6245+41.4465+56.7949+40.9543C56.8531+40.7862+64.0631+36.7645+64.0631+34.4515C64.0631+32.1385+60.1494+32.363+60.0638+31.7194C59.915+30.6003+63.7791+25.7978+63.4604+24.8123C62.4432+21.6665+56.7581+23.1438+56.7581+23.1438Z" opacity="1" fill="#6b80ff"/>
</g>
</g>
</g>
</g>
</svg>
