<?xml version="1.0" encoding="UTF-8" standalone="no"?> <!-- Created with Vectornator for iOS (http://vectornator.io/) --><!DOCTYPE svg PUBLIC "-//W3C//DTD SVG 1.1//EN" "http://www.w3.org/Graphics/SVG/1.1/DTD/svg11.dtd">
<svg height="100%" style="fill-rule:evenodd;clip-rule:evenodd;stroke-linecap:round;stroke-linejoin:round;" xmlns:xlink="http://www.w3.org/1999/xlink" xmlns="http://www.w3.org/2000/svg" xml:space="preserve" width="100%" xmlns:vectornator="http://vectornator.io" version="1.1" viewBox="0 0 1514.09 108.834">
<metadata>
<vectornator:setting key="DisplayWhiteBackground" value="1"/>
<vectornator:setting key="RulersVisible" value="1"/>
<vectornator:setting key="Units" value="Millimeters"/>
<vectornator:setting key="New" value="1"/>
<vectornator:setting key="DynamicGuides" value="1"/>
<vectornator:setting key="GuidesVisible" value="1"/>
<vectornator:setting key="SnapToPoints" value="1"/>
<vectornator:setting key="SnapToGrid" value="1"/>
<vectornator:setting key="SnapToGuides" value="1"/>
<vectornator:setting key="DimensionsVisible" value="1"/>
<vectornator:setting key="SnapToEdges" value="1"/>
</metadata>
<defs>
<path d="M26.3968+51.26C26.3968+36.0668+38.7133+23.7503+53.9064+23.7503C69.0996+23.7503+81.4161+36.0668+81.4161+51.26C81.4161+66.4532+69.0996+78.7697+53.9064+78.7697C38.7133+78.7697+26.3968+66.4532+26.3968+51.26Z" id="Mask"/>
</defs>
<g id="Layer 1" vectornator:layerName="Layer 1">
<path d="M23.7526+6.45189L1495.87+6.45189C1502.14+6.45189+1507.23+11.5782+1507.23+17.9019L1507.23+91.2564C1507.23+97.5801+1502.14+102.706+1495.87+102.706L23.7526+102.706C17.481+102.706+12.3968+97.5801+12.3968+91.2564L12.3968+17.9019C12.3968+11.5782+17.481+6.45189+23.7526+6.45189Z" opacity="1" fill="#ffffff"/>
<g opacity="1">
<g opacity="1" vectornator:mask="#Mask">
<use xlink:href="#Mask" fill="#ffffff" stroke="none"/>
<clipPath id="ClipPath">
<use xlink:href="#Mask" fill="none" overflow="visible"/>
</clipPath>
<g clip-path="url(#ClipPath)">
<g opacity="1">
<path d="M70.9038+23.9749C70.1803+25.2653+67.622+31.8999+66.9936+33.6057C65.5872+37.423+65.0762+41.7978+65.2655+46.9822C65.3805+50.1288+65.6958+53.0657+66.3536+57.88C66.4016+58.2315+66.5918+59.6199+66.6387+59.963C66.9333+62.1205+67.5059+64.1266+68.326+65.764C69.8069+65.7797+70.426+77.8216+72.4504+77.8749C72.7154+77.9128+88.9607+67.6106+88.9607+67.6106C88.9607+67.6106+83.2983+51.7024+83.4308+47.3865C83.5633+43.0707+72.4063+23.9191+70.9038+23.9749Z" opacity="1" fill="#4a145c"/>
<path d="M69.13+29.1611C68.557+29.1813+72.0824+24.0442+71.7374+24.0442L62.0076+23.2356L59.2496+32.5106L59.5283+32.9651L61.291+32.9074C62.1238+32.9074+62.6731+33.1024+62.9381+33.4999C63.2031+33.8974+63.3349+34.6841+63.3348+35.8577C63.3348+35.8577+61.2161+36.004+59.8067+36.0654L56.7949+40.9543L54.8123+44.9759C55.123+47.0514+60.0736+48.474+60.9541+49.4355L61.2201+49.4538L63.3348+49.5999L63.3348+51.6011C63.8823+52.0028+64.9946+52.8528+65.9487+53.2131C65.6923+50.9402+65.5226+48.9334+65.4516+46.9886C65.2614+41.7819+65.7707+37.3857+67.1866+33.5426C67.8022+31.8718+68.4232+30.4369+69.13+29.1611Z" opacity="1" fill="#882aa7"/>
<path d="M58.5993+44.9547C57.8995+44.9833+57.2181+45.005+56.578+45.005C56.578+45.0049+54.3893+47.3903+54.524+47.3903L57.0902+49.5472L56.2737+59.0944L56.7253+80.332L74.6152+79.3778L69.8604+65.92L67.4265+64.4359L63.3348+49.5999C63.2147+49.467+60.9184+49.421+60.8031+49.2685C60.0902+48.3256+59.485+47.457+59.1592+46.5316C59.0906+46.3369+59.0516+46.2327+58.8981+45.811C58.7805+45.4881+58.6904+45.2229+58.5993+44.9547Z" opacity="1" fill="#641b7c"/>
<path d="M63.3348+51.6011L63.3348+56.9268C63.3348+58.3275+63.223+59.4+62.9959+60.1383C62.7687+60.8765+62.3624+61.3947+61.7756+61.6975C61.1888+62.0004+60.3475+62.1719+59.2496+62.2098L58.7901+65.8456L66.6267+65.7301C67.0978+65.7301+67.9291+65.7524+68.4772+65.7577C67.6753+64.1192+67.1213+62.1251+66.83+59.9926C66.7832+59.6496+66.5868+58.2552+66.5388+57.9035C66.2918+56.0954+66.1065+54.6028+65.9487+53.2131C65.6421+53.0594+65.3396+52.8971+65.0423+52.7235C64.4367+52.37+63.8714+51.9924+63.3348+51.6011Z" opacity="1" fill="#641b7c"/>
<path d="M49.9748+44.8992C48.0274+46.0153+45.8176+46.3381+43.0858+45.7778C42.6197+45.6821+21.2545+35.3897+20.7123+35.1405L25.284+44.3424C15.9586+47.3865+41.7162+49.5951+41.7526+49.6306C42.8697+50.722+43.7707+52.0524+44.4938+53.5802C44.8758+53.5584+46.6868+55.3972+47.0365+55.3781C48.1998+55.3147+47.9251+53.4039+48.9566+53.3591L54.6523+52.8635C51.5937+55.803+49.2215+62.8474+48.9328+66.7749C48.8357+68.0949+32.6592+75.877+33.0859+76.2188C34.0973+77.0289+58.7087+80.7019+58.7901+80.5896C59.0051+80.2927+56.2991+60.1879+56.4606+58.469C56.8042+54.8113+57.0214+49.5481+57.0907+49.5481C57.0907+49.5481+56.8886+47.3865+56.5787+45.0039L49.9748+44.8992Z" opacity="1" fill="#ff5959"/>
<path d="M50.0403+21.7902C48.5932+21.8584+37.1627+26.8348+37.1627+26.8348C37.1627+26.8348+28.1431+32.7056+28.4081+33.1031C28.6731+33.5006+25.284+39.1278+25.284+40.3014L41.6428+40.9543C42.6683+39.0937+43.9897+36.8652+45.4422+34.333C45.6224+34.0189+45.8206+33.6888+46.0939+33.2391C46.1443+33.1561+46.683+32.2702+46.7863+32.0987C47.4028+31.0749+47.8927+30.0248+48.2721+29.2123C48.2812+29.1929+50.0313+21.8093+50.0403+21.7902Z" opacity="1" fill="#09d7ff"/>
<path d="M41.0531+52.0019C41.1917+52.2935+51.8941+62.6317+52.8785+63.0174C52.827+62.4685+55.4737+51.7284+55.4737+51.7284C55.4737+51.7284+41.5614+51.9729+41.0531+52.0019Z" opacity="1" fill="#ff00c6"/>
<path d="M23.7269+53.2131L41.6428+53.1729C42.2293+53.1406+42.5264+53.1352+43.1905+53.0973C43.7411+53.0658+43.9396+53.0537+44.296+53.0333C44.5413+47.3627+27.8785+42.5541+22.3223+45.765C20.7734+46.6602+23.7269+51.6686+23.7269+53.2131Z" opacity="1" fill="#967aff"/>
<path d="M44.2844+52.5003C43.9321+52.5204+43.7399+52.5335+43.2022+52.5643C42.5356+52.6024+42.237+52.6132+41.6487+52.6457C41.6487+52.6457+20.8651+52.4063+19.2372+52.7092L33.0859+76.2188C34.0323+76.1052+48.9249+69.3079+52.948+64.62L53.46+61.0475C53.46+61.0475+49.0256+59.2233+48.9507+58.5572C48.1315+58.2527+47.3394+57.744+46.6292+56.9746C46.0827+56.3826+45.66+55.6343+45.1862+54.5367C45.0642+54.254+44.6789+53.3136+44.6451+53.2334C44.5366+52.9756+44.403+52.7466+44.2844+52.5003Z" opacity="1" fill="#ffb900"/>
<path d="M56.7581+23.1438C54.7985+23.2685+51.4043+21.7246+50.0403+21.7902C49.6495+22.6394+47.4189+30.9163+46.763+32.0056C46.6595+32.1775+46.1152+33.069+46.0648+33.1518C45.7923+33.6003+45.5982+33.9274+45.419+34.2399C43.8938+36.8988+42.7004+39.0282+41.6428+40.9543C41.6374+40.9642+23.7323+40.2915+23.7269+40.3014L41.6428+45.2657C42.2149+45.5351+43.2214+46.057+43.6929+46.1537C46.2342+46.675+48.1231+45.9979+49.9748+44.8992L49.1369+44.8875L54.981+45.3809C55.0567+44.283+56.6245+41.4465+56.7949+40.9543C56.8531+40.7862+64.0631+36.7645+64.0631+34.4515C64.0631+32.1385+60.1494+32.363+60.0638+31.7194C59.915+30.6003+63.7791+25.7978+63.4604+24.8123C62.4432+21.6665+56.7581+23.1438+56.7581+23.1438Z" opacity="1" fill="#6b80ff"/>
</g>
</g>
</g>
<g opacity="1">
<path d="M110.804+67.4761C112.369+67.1559+113.419+66.7024+113.953+66.1154C114.486+65.5284+114.753+64.4878+114.753+62.9936L114.753+42.3422C114.753+41.2393+114.628+40.5011+114.379+40.1276C114.13+39.7541+113.615+39.5673+112.832+39.5673L110.964+39.6206L110.697+39.1937L111.124+36.0987L118.488+36.1521C119.662+36.1521+122.153+36.0275+125.959+35.7785L125.692+39.3005C124.341+39.4783+123.442+39.7541+122.998+40.1276C122.553+40.5011+122.295+41.186+122.224+42.1821C121.761+50.5778+121.53+57.6395+121.53+63.3672C121.53+64.8258+121.672+65.8041+121.957+66.3021C122.242+66.8002+122.793+67.0492+123.611+67.0492C124.003+67.0492+124.785+66.9958+125.959+66.8891L126.173+67.2093L125.692+70.5712L123.771+70.5178L117.848+70.4111C116.212+70.4111+113.757+70.5712+110.484+70.8913L110.804+67.4761Z" opacity="1" fill="#641b7c"/>
<path d="M130.442+48.4255L130.495+46.0242C130.495+43.8541+130.433+41.8174+130.308+39.9141C130.184+38.0109+130.104+36.7924+130.068+36.2588L135.351+35.5117L135.778+36.0453C135.671+36.7213+135.431+38.2243+135.058+40.5545C134.684+42.8847+134.248+45.2238+133.75+47.5717L131.242+48.5856L130.442+48.4255Z" opacity="1" fill="#641b7c"/>
<path d="M154.348+67.5295C155.202+67.3516+155.816+67.0314+156.189+66.5689C156.563+66.1065+156.767+65.4305+156.803+64.5412L156.963+55.3094C156.963+53.744+156.678+52.579+156.109+51.8141C155.54+51.0492+154.668+50.6668+153.494+50.6668C152.143+50.6668+150.577+51.3427+148.799+52.6946C148.443+59.0981+148.265+63.1004+148.265+64.7012C148.265+65.6262+148.381+66.2577+148.612+66.5956C148.843+66.9336+149.261+67.1026+149.866+67.1026L151.307+67.0492L151.413+67.2627L150.88+70.5712C150.488+70.5356+149.75+70.5+148.665+70.4644C147.58+70.4289+146.451+70.4111+145.277+70.4111C143.818+70.4111+142.493+70.4289+141.301+70.4644C140.109+70.5+139.318+70.5356+138.926+70.5712L139.407+67.316C140.438+67.2449+141.159+66.9958+141.568+66.5689C141.977+66.142+142.182+65.4305+142.182+64.4344L142.182+53.1215C142.182+51.8763+141.995+51.0314+141.621+50.5867C141.248+50.142+140.563+49.9197+139.567+49.9197L138.873+49.9197L138.66+49.6529L138.926+46.878C140.919+46.5934+142.911+46.2554+144.903+45.8641C146.895+45.4728+148.176+45.2238+148.745+45.117L149.172+45.6507C149.101+45.8641+148.994+46.3444+148.852+47.0915C148.71+47.8385+148.621+48.5856+148.585+49.3327L148.745+49.4928C149.99+48.4967+151.316+47.5273+152.721+46.5845C154.126+45.6418+155.131+45.1704+155.736+45.1704C157.728+45.1704+159.356+45.5439+160.618+46.291C161.881+47.0381+162.762+48.1409+163.26+49.5995C164.256+48.7101+165.528+47.7496+167.075+46.7179C168.623+45.6862+169.717+45.1704+170.357+45.1704C172.883+45.1704+174.857+45.7752+176.28+46.9847C177.703+48.1943+178.415+49.8841+178.415+52.0542C178.415+52.908+178.255+54.7757+177.935+57.6573C177.579+61.286+177.401+63.6162+177.401+64.6479C177.401+65.5728+177.535+66.231+177.801+66.6223C178.068+67.0136+178.504+67.2093+179.109+67.2093C179.429+67.2093+179.758+67.1915+180.096+67.1559C180.434+67.1204+180.656+67.1026+180.763+67.1026L180.87+67.316L180.336+70.5712C179.909+70.5356+179.127+70.5+177.988+70.4644C176.85+70.4289+175.693+70.4111+174.519+70.4111C173.666+70.4111+172.59+70.4467+171.291+70.5178C169.993+70.589+169.148+70.6423+168.756+70.6779L169.13+67.3694C169.948+67.2627+170.526+66.9958+170.864+66.5689C171.202+66.142+171.389+65.4661+171.424+64.5412L171.585+55.3094C171.62+52.2143+170.464+50.6668+168.116+50.6668C166.764+50.6668+165.234+51.3249+163.527+52.6412L162.833+64.6479C162.833+65.5728+162.966+66.231+163.233+66.6223C163.5+67.0136+163.918+67.2093+164.487+67.2093C164.807+67.2093+165.11+67.1915+165.394+67.1559C165.679+67.1204+165.875+67.1026+165.981+67.1026L166.088+67.316L165.555+70.5712C165.163+70.5356+164.416+70.5+163.313+70.4644C162.21+70.4289+161.09+70.4111+159.951+70.4111C159.098+70.4111+157.995+70.4733+156.643+70.5978C155.291+70.7224+154.402+70.8024+153.975+70.838L154.348+67.5295Z" opacity="1" fill="#641b7c"/>
<path d="M192.556+67.6362C193.374+67.4583+193.97+67.2004+194.344+66.8624C194.717+66.5245+194.958+66.0976+195.064+65.5817C195.171+65.0659+195.224+64.2921+195.224+63.2604L195.224+38.5C195.224+37.5395+195.144+36.8547+194.984+36.4455C194.824+36.0364+194.513+35.7696+194.05+35.6451C193.588+35.5206+192.823+35.4939+191.756+35.5651L191.542+35.3516L191.862+32.5234C196.167+31.9542+199.76+31.385+202.642+30.8158L203.015+31.8297C202.517+33.0036+202.117+36.6323+201.815+42.7157C201.512+48.7991+201.361+56.1632+201.361+64.808C201.361+65.6973+201.486+66.3199+201.735+66.6757C201.984+67.0314+202.393+67.2093+202.962+67.2093L204.723+67.1026L204.883+67.4228L204.296+70.5712L202.535+70.5178C200.543+70.4467+199.12+70.4111+198.266+70.4111C196.914+70.4111+194.886+70.5712+192.183+70.8913L192.556+67.6362Z" opacity="1" fill="#641b7c"/>
<path d="M218.811+71.0514C215.075+71.0514+212.131+69.9575+209.979+67.7696C207.827+65.5817+206.751+62.5845+206.751+58.7779C206.751+56.2165+207.302+53.9041+208.405+51.8408C209.508+49.7774+211.02+48.1498+212.941+46.9581C214.862+45.7663+216.996+45.1704+219.344+45.1704C225.321+45.1704+228.309+48.1943+228.309+54.2421C228.309+55.3094+228.185+56.3055+227.936+57.2304L227.295+57.8708L213.474+57.8708C213.51+60.4678+214.124+62.4511+215.315+63.8208C216.507+65.1904+218.17+65.8752+220.305+65.8752C222.155+65.8752+224.272+65.3416+226.655+64.2743L227.029+64.4878L227.882+67.1026C226.566+68.0987+225.045+69.0059+223.32+69.8241C221.595+70.6423+220.091+71.0514+218.811+71.0514ZM220.785+54.5089C221.212+54.4733+221.488+54.3844+221.612+54.2421C221.737+54.0998+221.799+53.7796+221.799+53.2816C221.799+50.649+220.678+49.3327+218.437+49.3327C217.05+49.3327+215.92+49.813+215.049+50.7735C214.177+51.734+213.652+53.1215+213.474+54.9358L220.785+54.5089Z" opacity="1" fill="#641b7c"/>
<path d="M250.402+71.0514C248.836+71.0514+247.6+70.7046+246.693+70.0109C245.786+69.3171+245.243+68.2943+245.065+66.9425L244.638+66.7824C243.5+67.9564+242.397+68.9258+241.33+69.6907C240.263+70.4555+239.409+70.838+238.769+70.838C236.67+70.838+234.926+70.0998+233.539+68.6234C232.152+67.147+231.458+65.306+231.458+63.1004C231.458+61.9975+231.742+61.0459+232.312+60.2454C232.881+59.445+233.628+58.9203+234.553+58.6712L244.852+56.2699L244.905+54.9892C244.905+53.4594+244.496+52.2677+243.678+51.4139C242.86+50.5601+241.739+50.1331+240.316+50.1331C239.356+50.1331+238.315+50.3733+237.194+50.8535C236.074+51.3338+235.033+51.9297+234.073+52.6412L233.592+52.4278L232.685+49.226C234.464+48.2299+236.332+47.3049+238.288+46.4511C240.245+45.5973+241.632+45.1704+242.451+45.1704C245.403+45.1704+247.618+45.8374+249.094+47.1715C250.571+48.5056+251.309+50.2577+251.309+52.4278C251.309+53.2104+251.149+54.8113+250.829+57.2304C250.437+60.6812+250.242+62.7446+250.242+63.4205C250.242+64.0965+250.419+64.6301+250.775+65.0214C251.131+65.4127+251.593+65.6084+252.163+65.6084C252.59+65.6084+253.043+65.5106+253.523+65.3149C254.004+65.1192+254.404+64.9147+254.724+64.7012L255.524+65.8219C254.884+66.9603+254.093+68.0542+253.15+69.1037C252.207+70.1532+251.291+70.8024+250.402+71.0514ZM240.743+65.7685C241.277+65.7685+241.908+65.6262+242.637+65.3416C243.367+65.057+244.016+64.6835+244.585+64.221L244.745+59.1515L239.035+60.7524C238.182+60.9658+237.755+61.5528+237.755+62.5134C237.755+63.4383+238.03+64.2121+238.582+64.8346C239.133+65.4572+239.854+65.7685+240.743+65.7685Z" opacity="1" fill="#641b7c"/>
<path d="M258.139+67.3694C259.207+67.2982+259.927+67.0136+260.3+66.5156C260.674+66.0175+260.861+65.0748+260.861+63.6873L260.861+53.0681C260.861+51.8586+260.701+51.0314+260.381+50.5867C260.06+50.142+259.456+49.9197+258.566+49.9197L257.552+49.9731L257.285+49.5995L257.606+46.9314C259.491+46.6112+261.421+46.2554+263.396+45.8641C265.37+45.4728+266.642+45.2238+267.211+45.117L267.691+45.5973C267.62+45.9175+267.522+46.5934+267.398+47.6251C267.273+48.6568+267.193+49.6529+267.158+50.6134L267.478+50.8269C268.581+49.1548+269.799+47.8563+271.133+46.9314C272.467+46.0064+273.739+45.5439+274.949+45.5439C275.447+45.5439+275.856+45.5617+276.176+45.5973C276.496+45.6329+276.71+45.6684+276.816+45.704L277.03+46.1309C276.923+46.7357+276.745+48.0431+276.496+50.0531C276.247+52.0631+276.069+53.9753+275.962+55.7896L272.547+56.0031C272.547+54.2955+272.449+53.1659+272.254+52.6145C272.058+52.0631+271.658+51.7874+271.053+51.7874C270.484+51.7874+269.879+52.0009+269.239+52.4278C268.598+52.8547+267.994+53.4417+267.424+54.1887C267.389+55.1848+267.309+56.8124+267.184+59.0714C267.06+61.3305+266.98+63.1359+266.944+64.4878C266.944+65.4127+267.095+66.0531+267.398+66.4089C267.7+66.7646+268.243+66.9425+269.025+66.9425C269.559+66.9425+270.093+66.9247+270.626+66.8891C271.16+66.8535+271.516+66.818+271.693+66.7824L271.854+67.1026L271.267+70.6245C270.769+70.589+269.852+70.5445+268.518+70.4911C267.184+70.4378+265.806+70.4111+264.383+70.4111C263.031+70.4111+261.679+70.4378+260.327+70.4911C258.975+70.5445+258.104+70.589+257.712+70.6245L258.139+67.3694Z" opacity="1" fill="#641b7c"/>
<path d="M294.746+67.5295C295.636+67.3516+296.267+67.0314+296.641+66.5689C297.014+66.1065+297.219+65.4305+297.254+64.5412L297.414+55.3094C297.414+53.744+297.13+52.579+296.561+51.8141C295.991+51.0492+295.12+50.6668+293.946+50.6668C292.594+50.6668+291.029+51.3427+289.25+52.6946C288.894+59.0981+288.716+63.1004+288.716+64.7012C288.716+65.5906+288.832+66.2132+289.063+66.5689C289.294+66.9247+289.712+67.1026+290.317+67.1026L291.758+67.0492L291.865+67.2627L291.331+70.5712C290.94+70.5356+290.202+70.5+289.116+70.4644C288.031+70.4289+286.902+70.4111+285.728+70.4111C284.59+70.4111+283.353+70.4555+282.019+70.5445C280.685+70.6334+279.822+70.6957+279.431+70.7313L279.858+67.4228C280.89+67.316+281.61+67.0403+282.019+66.5956C282.428+66.1509+282.633+65.4305+282.633+64.4344L282.633+53.1215C282.633+51.8763+282.446+51.0314+282.073+50.5867C281.699+50.142+281.014+49.9197+280.018+49.9197L279.324+49.9197L279.111+49.6529L279.378+46.878C281.406+46.5934+283.407+46.2554+285.381+45.8641C287.355+45.4728+288.627+45.2238+289.197+45.117L289.623+45.6507C289.552+45.8641+289.446+46.3444+289.303+47.0915C289.161+47.8385+289.072+48.5856+289.036+49.3327L289.25+49.5462C290.353+48.5856+291.625+47.6162+293.065+46.6379C294.506+45.6596+295.547+45.1704+296.187+45.1704C298.713+45.1704+300.678+45.7752+302.084+46.9847C303.489+48.1943+304.192+49.8841+304.192+52.0542C304.192+52.5878+304.049+54.4555+303.765+57.6573C303.409+61.286+303.231+63.6162+303.231+64.6479C303.231+65.5728+303.364+66.231+303.631+66.6223C303.898+67.0136+304.316+67.2093+304.885+67.2093C305.241+67.2093+305.579+67.1915+305.899+67.1559C306.219+67.1204+306.433+67.1026+306.539+67.1026L306.646+67.316L306.166+70.5712C305.739+70.5356+304.965+70.5+303.845+70.4644C302.724+70.4289+301.577+70.4111+300.403+70.4111C299.549+70.4111+298.455+70.4733+297.121+70.5978C295.787+70.7224+294.906+70.8024+294.479+70.838L294.746+67.5295Z" opacity="1" fill="#641b7c"/>
<path d="M309.581+67.6362C310.613+67.4583+311.369+67.1115+311.849+66.5956C312.329+66.0798+312.569+65.3238+312.569+64.3277L312.569+52.8013C312.569+51.6629+312.409+50.8802+312.089+50.4533C311.769+50.0264+311.182+49.813+310.328+49.813C310.079+49.813+309.83+49.8308+309.581+49.8663C309.332+49.9019+309.172+49.9375+309.101+49.9731L309.421+46.9314C311.413+46.6468+313.441+46.3177+315.504+45.9442C317.568+45.5706+318.902+45.3127+319.507+45.1704L319.987+46.0242C319.596+46.8069+319.284+48.9503+319.053+52.4544C318.822+55.9586+318.706+60.0764+318.706+64.808C318.706+65.6618+318.831+66.2666+319.08+66.6223C319.329+66.9781+319.756+67.1559+320.36+67.1559C320.681+67.1559+320.992+67.1381+321.294+67.1026C321.597+67.067+321.801+67.0492+321.908+67.0492L322.068+67.316L321.534+70.5712C321.143+70.5356+320.369+70.5+319.213+70.4644C318.057+70.4289+316.874+70.4111+315.665+70.4111C314.562+70.4111+313.308+70.4911+311.902+70.6512C310.497+70.8113+309.581+70.9269+309.154+70.9981L309.581+67.6362ZM315.184+40.5812C314.01+40.5812+313.103+40.2432+312.463+39.5673C311.822+38.8914+311.502+37.9842+311.502+36.8458C311.502+35.5651+311.885+34.5334+312.65+33.7507C313.414+32.9681+314.437+32.5767+315.718+32.5767C316.856+32.5767+317.746+32.9236+318.386+33.6173C319.026+34.311+319.347+35.2271+319.347+36.3655C319.347+37.6106+318.964+38.6245+318.199+39.4072C317.434+40.1898+316.429+40.5812+315.184+40.5812Z" opacity="1" fill="#641b7c"/>
<path d="M340.318+67.5295C341.208+67.3516+341.839+67.0314+342.213+66.5689C342.586+66.1065+342.791+65.4305+342.826+64.5412L342.986+55.3094C342.986+53.744+342.702+52.579+342.133+51.8141C341.563+51.0492+340.692+50.6668+339.518+50.6668C338.166+50.6668+336.601+51.3427+334.822+52.6946C334.466+59.0981+334.288+63.1004+334.288+64.7012C334.288+65.5906+334.404+66.2132+334.635+66.5689C334.866+66.9247+335.284+67.1026+335.889+67.1026L337.33+67.0492L337.437+67.2627L336.903+70.5712C336.512+70.5356+335.773+70.5+334.688+70.4644C333.603+70.4289+332.474+70.4111+331.3+70.4111C330.161+70.4111+328.925+70.4555+327.591+70.5445C326.257+70.6334+325.394+70.6957+325.003+70.7313L325.43+67.4228C326.462+67.316+327.182+67.0403+327.591+66.5956C328+66.1509+328.205+65.4305+328.205+64.4344L328.205+53.1215C328.205+51.8763+328.018+51.0314+327.645+50.5867C327.271+50.142+326.586+49.9197+325.59+49.9197L324.896+49.9197L324.683+49.6529L324.95+46.878C326.977+46.5934+328.979+46.2554+330.953+45.8641C332.927+45.4728+334.199+45.2238+334.768+45.117L335.195+45.6507C335.124+45.8641+335.018+46.3444+334.875+47.0915C334.733+47.8385+334.644+48.5856+334.608+49.3327L334.822+49.5462C335.925+48.5856+337.197+47.6162+338.637+46.6379C340.078+45.6596+341.119+45.1704+341.759+45.1704C344.285+45.1704+346.25+45.7752+347.656+46.9847C349.061+48.1943+349.763+49.8841+349.763+52.0542C349.763+52.5878+349.621+54.4555+349.337+57.6573C348.981+61.286+348.803+63.6162+348.803+64.6479C348.803+65.5728+348.936+66.231+349.203+66.6223C349.47+67.0136+349.888+67.2093+350.457+67.2093C350.813+67.2093+351.151+67.1915+351.471+67.1559C351.791+67.1204+352.005+67.1026+352.111+67.1026L352.218+67.316L351.738+70.5712C351.311+70.5356+350.537+70.5+349.417+70.4644C348.296+70.4289+347.149+70.4111+345.975+70.4111C345.121+70.4111+344.027+70.4733+342.693+70.5978C341.359+70.7224+340.478+70.8024+340.051+70.838L340.318+67.5295Z" opacity="1" fill="#641b7c"/>
<path d="M379.487+48.2121C377.601+48.39+376.285+48.4967+375.538+48.5323L375.324+48.8524C376.747+50.3822+377.459+52.1432+377.459+54.1354C377.459+55.9141+376.961+57.5328+375.965+58.9914C374.969+60.45+373.599+61.5884+371.856+62.4066C370.113+63.2249+368.156+63.634+365.986+63.634C364.812+63.634+363.656+63.4917+362.517+63.2071C362.055+63.5984+361.726+63.9275+361.53+64.1943C361.334+64.4611+361.237+64.7368+361.237+65.0214C361.237+65.6973+361.752+66.1776+362.784+66.4622C363.816+66.7468+365.452+67.0136+367.693+67.2627C370.077+67.5117+372.034+67.7963+373.563+68.1165C375.093+68.4366+376.418+69.0147+377.539+69.8508C378.66+70.6868+379.22+71.8697+379.22+73.3994C379.22+75.0714+378.544+76.6723+377.192+78.2021C375.84+79.7318+374.079+80.9681+371.909+81.9108C369.739+82.8535+367.462+83.3249+365.079+83.3249C362.233+83.3249+359.956+82.6401+358.248+81.2704C356.541+79.9008+355.687+78.0776+355.687+75.8007C356.612+74.8402+358.39+73.5417+361.023+71.9052L361.023+71.5317C359.315+71.2471+357.99+70.6334+357.048+69.6907C356.105+68.7479+355.598+67.5473+355.527+66.0887C356.807+64.7724+358.266+63.5806+359.902+62.5134L359.902+62.1932C358.622+61.4461+357.626+60.45+356.914+59.2049C356.203+57.9597+355.847+56.5545+355.847+54.9892C355.847+53.1393+356.327+51.4583+357.288+49.9464C358.248+48.4344+359.564+47.2515+361.237+46.3977C362.909+45.5439+364.794+45.117+366.893+45.117C367.782+45.117+368.832+45.2238+370.041+45.4372C371.18+45.5795+371.962+45.6507+372.389+45.6507C373.67+45.5795+376.16+44.9925+379.86+43.8897L380.18+44.1031L379.487+48.2121ZM366.946+60.112C368.227+60.112+369.214+59.6673+369.908+58.7779C370.602+57.8886+370.949+56.6079+370.949+54.9358C370.949+53.1571+370.548+51.734+369.748+50.6668C368.947+49.5995+367.818+49.0659+366.359+49.0659C365.114+49.0659+364.145+49.5017+363.451+50.3733C362.757+51.2449+362.411+52.5523+362.411+54.2955C362.411+56.0387+362.811+57.4439+363.611+58.5111C364.412+59.5784+365.523+60.112+366.946+60.112ZM364.332+72.2254C363.691+72.759+363.193+73.3638+362.837+74.0398C362.482+74.7157+362.304+75.3916+362.304+76.0676C362.304+77.0992+362.722+77.9086+363.558+78.4956C364.394+79.0826+365.577+79.3761+367.106+79.3761C368.85+79.3761+370.317+78.9936+371.509+78.2288C372.701+77.4639+373.297+76.53+373.297+75.4272C373.297+74.858+373.083+74.4044+372.656+74.0664C372.229+73.7285+371.402+73.4261+370.175+73.1593C368.947+72.8925+367+72.5812+364.332+72.2254Z" opacity="1" fill="#641b7c"/>
<path d="M413.212+71.0514C410.046+71.0514+408.267+69.7707+407.876+67.2093L407.556+67.1026C404.105+69.5928+402.024+70.838+401.312+70.838C398.217+70.838+395.753+69.7885+393.921+67.6896C392.089+65.5906+391.173+62.7446+391.173+59.1515C391.173+56.5189+391.751+54.1443+392.907+52.0275C394.064+49.9108+395.665+48.2566+397.71+47.0648C399.756+45.873+402.059+45.2771+404.621+45.2771C405.474+45.2771+406.399+45.3305+407.395+45.4372L407.395+38.5534C407.395+37.4506+407.227+36.6768+406.889+36.2321C406.551+35.7874+405.972+35.5651+405.154+35.5651C404.87+35.5651+404.603+35.5828+404.354+35.6184C404.105+35.654+403.945+35.6896+403.874+35.7251L404.194+32.5767C406.293+32.3277+408.409+32.0075+410.544+31.6162C412.678+31.2249+414.066+30.9581+414.706+30.8158L415.186+31.7229C414.724+32.3989+414.333+35.8674+414.012+42.1287C413.692+48.39+413.532+55.4872+413.532+63.4205C413.532+64.0965+413.683+64.6301+413.986+65.0214C414.288+65.4127+414.706+65.6084+415.24+65.6084C415.631+65.6084+416.005+65.5373+416.36+65.395C416.716+65.2527+417.01+65.1104+417.241+64.9681C417.472+64.8258+417.623+64.7368+417.695+64.7012L418.548+65.8219C418.442+66.0353+418.139+66.4978+417.641+67.2093C417.143+67.9208+416.494+68.6679+415.693+69.4505C414.893+70.2332+414.066+70.7668+413.212+71.0514ZM403.287+65.9286C403.856+65.9286+404.452+65.7952+405.074+65.5284C405.697+65.2616+406.213+64.9858+406.622+64.7012C407.031+64.4166+407.289+64.221+407.395+64.1142L407.395+50.6134C407.324+50.5778+407.111+50.4889+406.755+50.3466C406.399+50.2043+405.937+50.062+405.368+49.9197C404.798+49.7774+404.158+49.7062+403.447+49.7062C401.703+49.7062+400.352+50.3555+399.391+51.654C398.431+52.9525+397.95+54.7935+397.95+57.1771C397.95+59.8096+398.439+61.9264+399.418+63.5273C400.396+65.1281+401.686+65.9286+403.287+65.9286Z" opacity="1" fill="#641b7c"/>
<path d="M420.309+67.6362C421.341+67.4583+422.097+67.1115+422.577+66.5956C423.058+66.0798+423.298+65.3238+423.298+64.3277L423.298+52.8013C423.298+51.6629+423.138+50.8802+422.817+50.4533C422.497+50.0264+421.91+49.813+421.056+49.813C420.807+49.813+420.558+49.8308+420.309+49.8663C420.06+49.9019+419.9+49.9375+419.829+49.9731L420.149+46.9314C422.141+46.6468+424.169+46.3177+426.233+45.9442C428.296+45.5706+429.63+45.3127+430.235+45.1704L430.715+46.0242C430.324+46.8069+430.012+48.9503+429.781+52.4544C429.55+55.9586+429.434+60.0764+429.434+64.808C429.434+65.6618+429.559+66.2666+429.808+66.6223C430.057+66.9781+430.484+67.1559+431.089+67.1559C431.409+67.1559+431.72+67.1381+432.022+67.1026C432.325+67.067+432.529+67.0492+432.636+67.0492L432.796+67.316L432.263+70.5712C431.871+70.5356+431.098+70.5+429.941+70.4644C428.785+70.4289+427.602+70.4111+426.393+70.4111C425.29+70.4111+424.036+70.4911+422.631+70.6512C421.225+70.8113+420.309+70.9269+419.882+70.9981L420.309+67.6362ZM425.912+40.5812C424.738+40.5812+423.831+40.2432+423.191+39.5673C422.551+38.8914+422.23+37.9842+422.23+36.8458C422.23+35.5651+422.613+34.5334+423.378+33.7507C424.143+32.9681+425.165+32.5767+426.446+32.5767C427.584+32.5767+428.474+32.9236+429.114+33.6173C429.755+34.311+430.075+35.2271+430.075+36.3655C430.075+37.6106+429.692+38.6245+428.927+39.4072C428.163+40.1898+427.158+40.5812+425.912+40.5812Z" opacity="1" fill="#641b7c"/>
<path d="M445.39+46.3977L454.248+46.3977L458.09+46.3444L458.357+46.7713L457.877+49.9731L455.315+49.9197L445.337+49.9197L445.283+57.1771C445.212+60.3788+445.176+62.798+445.176+64.4344C445.176+66.1065+445.87+66.9425+447.258+66.9425C448.147+66.9425+448.903+66.9247+449.526+66.8891C450.148+66.8535+450.548+66.8358+450.726+66.8358L450.886+67.0492L450.406+70.6245L448.538+70.5712C446.688+70.5+445.159+70.4644+443.949+70.4644L441.815+70.4111C440.356+70.4467+439.066+70.4911+437.946+70.5445C436.825+70.5978+436.087+70.6423+435.731+70.6779L436.051+67.4228C437.332+67.316+438.15+66.987+438.506+66.4355C438.862+65.8841+439.04+64.8969+439.04+63.4739L439.04+51.9475C439.004+51.0937+438.746+50.5334+438.266+50.2666C437.786+49.9997+436.887+49.8308+435.571+49.7596L435.358+49.4394L435.785+46.7179L439.04+46.1843C439.04+43.1604+439.636+40.5545+440.827+38.3666C442.019+36.1787+443.673+34.5156+445.79+33.3772C447.907+32.2388+450.335+31.6696+453.074+31.6696C454.568+31.6696+455.965+31.8474+457.263+32.2032C458.562+32.5589+459.638+32.9592+460.492+33.4039C461.345+33.8486+461.772+34.0887+461.772+34.1243L461.986+34.9247C461.843+35.1737+461.55+35.6896+461.105+36.4722C460.661+37.2549+460.154+38.2332+459.584+39.4072L458.944+39.5673C458.944+39.4961+458.579+39.1848+457.85+38.6334C457.121+38.082+456.205+37.5751+455.102+37.1126C453.999+36.6501+452.807+36.4189+451.527+36.4189C449.392+36.4189+447.854+37.0325+446.911+38.2599C445.968+39.4872+445.479+41.3816+445.443+43.943L445.39+46.3977Z" opacity="1" fill="#641b7c"/>
<path d="M453.394+67.4761C454.426+67.3694+455.182+67.067+455.662+66.5689C456.143+66.0709+456.383+65.3594+456.383+64.4344L456.383+51.8941C456.347+51.0759+456.098+50.5334+455.636+50.2666C455.173+49.9997+454.266+49.8308+452.914+49.7596L452.701+49.4394L453.128+46.7179L456.383+46.1843L456.383+45.7574C456.383+42.7335+456.934+40.092+458.037+37.833C459.14+35.574+460.696+33.8397+462.706+32.6301C464.716+31.4205+467.055+30.8158+469.723+30.8158C470.826+30.8158+471.831+30.8958+472.738+31.0559C473.646+31.216+474.366+31.385+474.9+31.5628C475.433+31.7407+475.771+31.8652+475.914+31.9364L476.127+32.7368C476.02+32.9858+475.798+33.5284+475.46+34.3644C475.122+35.2004+474.722+36.2232+474.259+37.4328L473.619+37.5929C473.512+37.4861+473.201+37.2727+472.685+36.9525C472.169+36.6323+471.493+36.321+470.657+36.0186C469.821+35.7163+468.923+35.5651+467.962+35.5651C466.113+35.5651+464.796+36.2054+464.014+37.4861C463.231+38.7668+462.822+40.9191+462.786+43.943L462.733+46.3977C464.512+46.3977+466.015+46.38+467.242+46.3444C468.469+46.3088+469.261+46.2732+469.617+46.2377L469.777+46.5045L469.243+50.0798C468.923+50.0798+468.185+50.062+467.029+50.0264C465.872+49.9908+464.423+49.9553+462.68+49.9197L462.519+64.4344C462.519+66.1065+463.267+66.9425+464.761+66.9425C465.543+66.9425+466.237+66.9247+466.842+66.8891C467.447+66.8535+467.838+66.8358+468.016+66.8358L468.229+67.0492L467.696+70.5712C467.126+70.5712+466.068+70.5445+464.521+70.4911C462.973+70.4378+461.488+70.4111+460.065+70.4111C458.82+70.4111+457.459+70.4555+455.982+70.5445C454.506+70.6334+453.537+70.6957+453.074+70.7313L453.394+67.4761Z" opacity="1" fill="#641b7c"/>
<path d="M483.011+71.0514C479.275+71.0514+476.332+69.9575+474.179+67.7696C472.027+65.5817+470.951+62.5845+470.951+58.7779C470.951+56.2165+471.502+53.9041+472.605+51.8408C473.708+49.7774+475.22+48.1498+477.141+46.9581C479.062+45.7663+481.196+45.1704+483.544+45.1704C489.521+45.1704+492.509+48.1943+492.509+54.2421C492.509+55.3094+492.385+56.3055+492.136+57.2304L491.496+57.8708L477.675+57.8708C477.71+60.4678+478.324+62.4511+479.516+63.8208C480.707+65.1904+482.37+65.8752+484.505+65.8752C486.355+65.8752+488.472+65.3416+490.855+64.2743L491.229+64.4878L492.083+67.1026C490.766+68.0987+489.245+69.0059+487.52+69.8241C485.795+70.6423+484.292+71.0514+483.011+71.0514ZM484.985+54.5089C485.412+54.4733+485.688+54.3844+485.812+54.2421C485.937+54.0998+485.999+53.7796+485.999+53.2816C485.999+50.649+484.879+49.3327+482.637+49.3327C481.25+49.3327+480.12+49.813+479.249+50.7735C478.377+51.734+477.852+53.1215+477.675+54.9358L484.985+54.5089Z" opacity="1" fill="#641b7c"/>
<path d="M496.565+67.3694C497.632+67.2982+498.353+67.0136+498.726+66.5156C499.1+66.0175+499.287+65.0748+499.287+63.6873L499.287+53.0681C499.287+51.8586+499.126+51.0314+498.806+50.5867C498.486+50.142+497.881+49.9197+496.992+49.9197L495.978+49.9731L495.711+49.5995L496.031+46.9314C497.917+46.6112+499.847+46.2554+501.821+45.8641C503.796+45.4728+505.067+45.2238+505.637+45.117L506.117+45.5973C506.046+45.9175+505.948+46.5934+505.823+47.6251C505.699+48.6568+505.619+49.6529+505.583+50.6134L505.904+50.8269C507.006+49.1548+508.225+47.8563+509.559+46.9314C510.893+46.0064+512.165+45.5439+513.374+45.5439C513.872+45.5439+514.282+45.5617+514.602+45.5973C514.922+45.6329+515.135+45.6684+515.242+45.704L515.455+46.1309C515.349+46.7357+515.171+48.0431+514.922+50.0531C514.673+52.0631+514.495+53.9753+514.388+55.7896L510.973+56.0031C510.973+54.2955+510.875+53.1659+510.68+52.6145C510.484+52.0631+510.084+51.7874+509.479+51.7874C508.91+51.7874+508.305+52.0009+507.664+52.4278C507.024+52.8547+506.419+53.4417+505.85+54.1887C505.815+55.1848+505.735+56.8124+505.61+59.0714C505.486+61.3305+505.405+63.1359+505.37+64.4878C505.37+65.4127+505.521+66.0531+505.823+66.4089C506.126+66.7646+506.668+66.9425+507.451+66.9425C507.985+66.9425+508.518+66.9247+509.052+66.8891C509.586+66.8535+509.941+66.818+510.119+66.7824L510.279+67.1026L509.692+70.6245C509.194+70.589+508.278+70.5445+506.944+70.4911C505.61+70.4378+504.231+70.4111+502.808+70.4111C501.457+70.4111+500.105+70.4378+498.753+70.4911C497.401+70.5445+496.529+70.589+496.138+70.6245L496.565+67.3694Z" opacity="1" fill="#641b7c"/>
<path d="M529.597+71.0514C525.861+71.0514+522.917+69.9575+520.765+67.7696C518.613+65.5817+517.537+62.5845+517.537+58.7779C517.537+56.2165+518.088+53.9041+519.191+51.8408C520.294+49.7774+521.806+48.1498+523.727+46.9581C525.648+45.7663+527.782+45.1704+530.13+45.1704C536.107+45.1704+539.095+48.1943+539.095+54.2421C539.095+55.3094+538.971+56.3055+538.722+57.2304L538.081+57.8708L524.26+57.8708C524.296+60.4678+524.91+62.4511+526.101+63.8208C527.293+65.1904+528.956+65.8752+531.091+65.8752C532.941+65.8752+535.057+65.3416+537.441+64.2743L537.815+64.4878L538.668+67.1026C537.352+68.0987+535.831+69.0059+534.106+69.8241C532.38+70.6423+530.877+71.0514+529.597+71.0514ZM531.571+54.5089C531.998+54.4733+532.274+54.3844+532.398+54.2421C532.523+54.0998+532.585+53.7796+532.585+53.2816C532.585+50.649+531.464+49.3327+529.223+49.3327C527.836+49.3327+526.706+49.813+525.835+50.7735C524.963+51.734+524.438+53.1215+524.26+54.9358L531.571+54.5089Z" opacity="1" fill="#641b7c"/>
<path d="M557.826+67.5295C558.715+67.3516+559.347+67.0314+559.72+66.5689C560.094+66.1065+560.298+65.4305+560.334+64.5412L560.494+55.3094C560.494+53.744+560.209+52.579+559.64+51.8141C559.071+51.0492+558.199+50.6668+557.025+50.6668C555.673+50.6668+554.108+51.3427+552.329+52.6946C551.974+59.0981+551.796+63.1004+551.796+64.7012C551.796+65.5906+551.911+66.2132+552.143+66.5689C552.374+66.9247+552.792+67.1026+553.397+67.1026L554.837+67.0492L554.944+67.2627L554.41+70.5712C554.019+70.5356+553.281+70.5+552.196+70.4644C551.111+70.4289+549.981+70.4111+548.807+70.4111C547.669+70.4111+546.433+70.4555+545.099+70.5445C543.765+70.6334+542.902+70.6957+542.511+70.7313L542.937+67.4228C543.969+67.316+544.69+67.0403+545.099+66.5956C545.508+66.1509+545.712+65.4305+545.712+64.4344L545.712+53.1215C545.712+51.8763+545.526+51.0314+545.152+50.5867C544.778+50.142+544.094+49.9197+543.098+49.9197L542.404+49.9197L542.19+49.6529L542.457+46.878C544.485+46.5934+546.486+46.2554+548.46+45.8641C550.435+45.4728+551.707+45.2238+552.276+45.117L552.703+45.6507C552.632+45.8641+552.525+46.3444+552.383+47.0915C552.24+47.8385+552.151+48.5856+552.116+49.3327L552.329+49.5462C553.432+48.5856+554.704+47.6162+556.145+46.6379C557.586+45.6596+558.626+45.1704+559.266+45.1704C561.792+45.1704+563.758+45.7752+565.163+46.9847C566.568+48.1943+567.271+49.8841+567.271+52.0542C567.271+52.5878+567.129+54.4555+566.844+57.6573C566.488+61.286+566.31+63.6162+566.31+64.6479C566.31+65.5728+566.444+66.231+566.711+66.6223C566.977+67.0136+567.395+67.2093+567.965+67.2093C568.32+67.2093+568.658+67.1915+568.979+67.1559C569.299+67.1204+569.512+67.1026+569.619+67.1026L569.726+67.316L569.245+70.5712C568.818+70.5356+568.045+70.5+566.924+70.4644C565.803+70.4289+564.656+70.4111+563.482+70.4111C562.628+70.4111+561.534+70.4733+560.2+70.5978C558.866+70.7224+557.986+70.8024+557.559+70.838L557.826+67.5295Z" opacity="1" fill="#641b7c"/>
<path d="M581.786+71.0514C579.26+71.0514+577.41+70.5267+576.236+69.4772C575.062+68.4278+574.475+66.7646+574.475+64.4878L574.475+52.5878C574.475+51.4494+574.279+50.6935+573.888+50.3199C573.497+49.9464+572.732+49.7418+571.593+49.7062L571.06+49.3327L571.433+46.7179C572.785+46.0776+574.119+45.3394+575.435+44.5034C576.752+43.6673+577.846+42.9291+578.717+42.2888C579.589+41.6484+580.131+41.2393+580.345+41.0614L581.839+41.8085C581.803+42.022+581.723+42.5378+581.599+43.3561C581.474+44.1743+581.359+45.1882+581.252+46.3977L587.549+46.2377L587.762+46.5045L587.229+50.0798L580.932+49.9197C580.718+53.0147+580.612+56.8925+580.612+61.5528C580.612+63.0826+580.878+64.1854+581.412+64.8613C581.946+65.5373+582.817+65.8752+584.027+65.8752C584.667+65.8752+585.317+65.7685+585.975+65.555C586.633+65.3416+587.051+65.1993+587.229+65.1281L587.922+66.8358C587.709+67.0492+587.202+67.4939+586.402+68.1698C585.601+68.8458+584.747+69.495+583.84+70.1176C582.933+70.7401+582.248+71.0514+581.786+71.0514Z" opacity="1" fill="#641b7c"/>
<path d="M599.022+67.6362C599.84+67.4583+600.436+67.2004+600.81+66.8624C601.183+66.5245+601.423+66.0976+601.53+65.5817C601.637+65.0659+601.69+64.2921+601.69+63.2604L601.69+38.5C601.69+37.5395+601.61+36.8547+601.45+36.4455C601.29+36.0364+600.979+35.7696+600.516+35.6451C600.054+35.5206+599.289+35.4939+598.221+35.5651L598.008+35.3516L598.328+32.5234C602.633+31.9542+606.226+31.385+609.107+30.8158L609.481+31.8297C608.983+33.0036+608.583+36.6323+608.28+42.7157C607.978+48.7991+607.827+56.1632+607.827+64.808C607.827+65.6973+607.951+66.3199+608.2+66.6757C608.449+67.0314+608.858+67.2093+609.428+67.2093L611.189+67.1026L611.349+67.4228L610.762+70.5712L609.001+70.5178C607.009+70.4467+605.586+70.4111+604.732+70.4111C603.38+70.4111+601.352+70.5712+598.648+70.8913L599.022+67.6362Z" opacity="1" fill="#641b7c"/>
<path d="M632.214+71.0514C630.648+71.0514+629.412+70.7046+628.505+70.0109C627.598+69.3171+627.055+68.2943+626.877+66.9425L626.45+66.7824C625.312+67.9564+624.209+68.9258+623.142+69.6907C622.075+70.4555+621.221+70.838+620.581+70.838C618.482+70.838+616.738+70.0998+615.351+68.6234C613.964+67.147+613.27+65.306+613.27+63.1004C613.27+61.9975+613.554+61.0459+614.124+60.2454C614.693+59.445+615.44+58.9203+616.365+58.6712L626.664+56.2699L626.717+54.9892C626.717+53.4594+626.308+52.2677+625.49+51.4139C624.672+50.5601+623.551+50.1331+622.128+50.1331C621.168+50.1331+620.127+50.3733+619.006+50.8535C617.886+51.3338+616.845+51.9297+615.885+52.6412L615.404+52.4278L614.497+49.226C616.276+48.2299+618.144+47.3049+620.1+46.4511C622.057+45.5973+623.444+45.1704+624.263+45.1704C627.215+45.1704+629.43+45.8374+630.906+47.1715C632.383+48.5056+633.121+50.2577+633.121+52.4278C633.121+53.2104+632.961+54.8113+632.641+57.2304C632.249+60.6812+632.054+62.7446+632.054+63.4205C632.054+64.0965+632.231+64.6301+632.587+65.0214C632.943+65.4127+633.405+65.6084+633.975+65.6084C634.402+65.6084+634.855+65.5106+635.335+65.3149C635.816+65.1192+636.216+64.9147+636.536+64.7012L637.337+65.8219C636.696+66.9603+635.905+68.0542+634.962+69.1037C634.019+70.1532+633.103+70.8024+632.214+71.0514ZM622.555+65.7685C623.089+65.7685+623.72+65.6262+624.449+65.3416C625.179+65.057+625.828+64.6835+626.397+64.221L626.557+59.1515L620.847+60.7524C619.994+60.9658+619.567+61.5528+619.567+62.5134C619.567+63.4383+619.842+64.2121+620.394+64.8346C620.945+65.4572+621.666+65.7685+622.555+65.7685Z" opacity="1" fill="#641b7c"/>
<path d="M654.626+67.5295C655.515+67.3516+656.147+67.0314+656.52+66.5689C656.894+66.1065+657.099+65.4305+657.134+64.5412L657.294+55.3094C657.294+53.744+657.01+52.579+656.44+51.8141C655.871+51.0492+655+50.6668+653.826+50.6668C652.474+50.6668+650.908+51.3427+649.13+52.6946C648.774+59.0981+648.596+63.1004+648.596+64.7012C648.596+65.5906+648.712+66.2132+648.943+66.5689C649.174+66.9247+649.592+67.1026+650.197+67.1026L651.638+67.0492L651.745+67.2627L651.211+70.5712C650.82+70.5356+650.081+70.5+648.996+70.4644C647.911+70.4289+646.782+70.4111+645.608+70.4111C644.469+70.4111+643.233+70.4555+641.899+70.5445C640.565+70.6334+639.702+70.6957+639.311+70.7313L639.738+67.4228C640.77+67.316+641.49+67.0403+641.899+66.5956C642.308+66.1509+642.513+65.4305+642.513+64.4344L642.513+53.1215C642.513+51.8763+642.326+51.0314+641.952+50.5867C641.579+50.142+640.894+49.9197+639.898+49.9197L639.204+49.9197L638.991+49.6529L639.258+46.878C641.285+46.5934+643.286+46.2554+645.261+45.8641C647.235+45.4728+648.507+45.2238+649.076+45.117L649.503+45.6507C649.432+45.8641+649.325+46.3444+649.183+47.0915C649.041+47.8385+648.952+48.5856+648.916+49.3327L649.13+49.5462C650.233+48.5856+651.504+47.6162+652.945+46.6379C654.386+45.6596+655.427+45.1704+656.067+45.1704C658.593+45.1704+660.558+45.7752+661.964+46.9847C663.369+48.1943+664.071+49.8841+664.071+52.0542C664.071+52.5878+663.929+54.4555+663.644+57.6573C663.289+61.286+663.111+63.6162+663.111+64.6479C663.111+65.5728+663.244+66.231+663.511+66.6223C663.778+67.0136+664.196+67.2093+664.765+67.2093C665.121+67.2093+665.459+67.1915+665.779+67.1559C666.099+67.1204+666.313+67.1026+666.419+67.1026L666.526+67.316L666.046+70.5712C665.619+70.5356+664.845+70.5+663.724+70.4644C662.604+70.4289+661.457+70.4111+660.283+70.4111C659.429+70.4111+658.335+70.4733+657.001+70.5978C655.667+70.7224+654.786+70.8024+654.359+70.838L654.626+67.5295Z" opacity="1" fill="#641b7c"/>
<path d="M693.795+48.2121C691.909+48.39+690.593+48.4967+689.846+48.5323L689.632+48.8524C691.055+50.3822+691.767+52.1432+691.767+54.1354C691.767+55.9141+691.269+57.5328+690.273+58.9914C689.276+60.45+687.907+61.5884+686.164+62.4066C684.42+63.2249+682.464+63.634+680.294+63.634C679.12+63.634+677.964+63.4917+676.825+63.2071C676.363+63.5984+676.034+63.9275+675.838+64.1943C675.642+64.4611+675.544+64.7368+675.544+65.0214C675.544+65.6973+676.06+66.1776+677.092+66.4622C678.124+66.7468+679.76+67.0136+682.001+67.2627C684.385+67.5117+686.341+67.7963+687.871+68.1165C689.401+68.4366+690.726+69.0147+691.847+69.8508C692.967+70.6868+693.528+71.8697+693.528+73.3994C693.528+75.0714+692.852+76.6723+691.5+78.2021C690.148+79.7318+688.387+80.9681+686.217+81.9108C684.047+82.8535+681.77+83.3249+679.387+83.3249C676.54+83.3249+674.264+82.6401+672.556+81.2704C670.848+79.9008+669.995+78.0776+669.995+75.8007C670.92+74.8402+672.698+73.5417+675.331+71.9052L675.331+71.5317C673.623+71.2471+672.298+70.6334+671.355+69.6907C670.413+68.7479+669.906+67.5473+669.835+66.0887C671.115+64.7724+672.574+63.5806+674.21+62.5134L674.21+62.1932C672.93+61.4461+671.933+60.45+671.222+59.2049C670.51+57.9597+670.155+56.5545+670.155+54.9892C670.155+53.1393+670.635+51.4583+671.596+49.9464C672.556+48.4344+673.872+47.2515+675.544+46.3977C677.216+45.5439+679.102+45.117+681.201+45.117C682.09+45.117+683.14+45.2238+684.349+45.4372C685.488+45.5795+686.27+45.6507+686.697+45.6507C687.978+45.5795+690.468+44.9925+694.168+43.8897L694.488+44.1031L693.795+48.2121ZM681.254+60.112C682.535+60.112+683.522+59.6673+684.216+58.7779C684.91+57.8886+685.256+56.6079+685.256+54.9358C685.256+53.1571+684.856+51.734+684.056+50.6668C683.255+49.5995+682.126+49.0659+680.667+49.0659C679.422+49.0659+678.453+49.5017+677.759+50.3733C677.065+51.2449+676.718+52.5523+676.718+54.2955C676.718+56.0387+677.119+57.4439+677.919+58.5111C678.719+59.5784+679.831+60.112+681.254+60.112ZM678.639+72.2254C677.999+72.759+677.501+73.3638+677.145+74.0398C676.79+74.7157+676.612+75.3916+676.612+76.0676C676.612+77.0992+677.03+77.9086+677.866+78.4956C678.702+79.0826+679.885+79.3761+681.414+79.3761C683.158+79.3761+684.625+78.9936+685.817+78.2288C687.009+77.4639+687.604+76.53+687.604+75.4272C687.604+74.858+687.391+74.4044+686.964+74.0664C686.537+73.7285+685.71+73.4261+684.483+73.1593C683.255+72.8925+681.308+72.5812+678.639+72.2254Z" opacity="1" fill="#641b7c"/>
<path d="M698.811+52.4278C698.811+51.5028+698.668+50.8358+698.384+50.4266C698.099+50.0175+697.637+49.813+696.996+49.813C696.676+49.813+696.392+49.8308+696.142+49.8663C695.893+49.9019+695.733+49.9375+695.662+49.9731L695.982+46.878C697.832+46.629+699.753+46.3177+701.746+45.9442C703.738+45.5706+705.036+45.3127+705.641+45.1704L706.121+46.0242C705.73+46.9136+705.392+48.8613+705.107+51.8674C704.823+54.8736+704.681+57.9775+704.681+61.1793C704.681+62.6379+704.956+63.7229+705.508+64.4344C706.059+65.1459+706.904+65.5017+708.042+65.5017C708.754+65.5017+709.457+65.3327+710.15+64.9947C710.844+64.6568+711.689+64.1498+712.685+63.4739L712.685+52.4811C712.685+51.485+712.534+50.8091+712.231+50.4533C711.929+50.0976+711.315+49.9019+710.39+49.8663L709.43+49.9197L709.857+46.878C711.778+46.629+713.761+46.3266+715.807+45.9708C717.852+45.6151+719.178+45.3838+719.782+45.2771L720.263+46.1309C719.871+46.9492+719.533+49.0303+719.249+52.3744C718.964+55.7185+718.822+59.4005+718.822+63.4205C718.822+64.0965+719+64.6301+719.355+65.0214C719.711+65.4127+720.174+65.6084+720.743+65.6084C721.134+65.6084+721.517+65.5373+721.89+65.395C722.264+65.2527+722.575+65.1104+722.824+64.9681C723.073+64.8258+723.233+64.7368+723.304+64.7012L724.105+65.7685C723.962+66.0175+723.607+66.5245+723.037+67.2893C722.468+68.0542+721.775+68.828+720.956+69.6106C720.138+70.3933+719.355+70.8736+718.608+71.0514C715.371+71.0514+713.557+69.6818+713.165+66.9425L712.738+66.729C711.387+67.9742+710.15+68.997+709.03+69.7974C707.909+70.5978+707.153+70.9981+706.762+70.9981C704.058+70.9981+701.995+70.4289+700.572+69.2905C699.149+68.152+698.437+66.4978+698.437+64.3277L698.811+52.4278Z" opacity="1" fill="#641b7c"/>
<path d="M744.329+71.0514C742.764+71.0514+741.528+70.7046+740.621+70.0109C739.713+69.3171+739.171+68.2943+738.993+66.9425L738.566+66.7824C737.428+67.9564+736.325+68.9258+735.258+69.6907C734.19+70.4555+733.336+70.838+732.696+70.838C730.597+70.838+728.854+70.0998+727.467+68.6234C726.079+67.147+725.385+65.306+725.385+63.1004C725.385+61.9975+725.67+61.0459+726.239+60.2454C726.808+59.445+727.555+58.9203+728.48+58.6712L738.78+56.2699L738.833+54.9892C738.833+53.4594+738.424+52.2677+737.606+51.4139C736.787+50.5601+735.667+50.1331+734.244+50.1331C733.283+50.1331+732.243+50.3733+731.122+50.8535C730.001+51.3338+728.961+51.9297+728+52.6412L727.52+52.4278L726.613+49.226C728.392+48.2299+730.259+47.3049+732.216+46.4511C734.173+45.5973+735.56+45.1704+736.378+45.1704C739.331+45.1704+741.545+45.8374+743.022+47.1715C744.498+48.5056+745.236+50.2577+745.236+52.4278C745.236+53.2104+745.076+54.8113+744.756+57.2304C744.365+60.6812+744.169+62.7446+744.169+63.4205C744.169+64.0965+744.347+64.6301+744.703+65.0214C745.059+65.4127+745.521+65.6084+746.09+65.6084C746.517+65.6084+746.971+65.5106+747.451+65.3149C747.931+65.1192+748.331+64.9147+748.652+64.7012L749.452+65.8219C748.812+66.9603+748.02+68.0542+747.077+69.1037C746.135+70.1532+745.219+70.8024+744.329+71.0514ZM734.671+65.7685C735.204+65.7685+735.836+65.6262+736.565+65.3416C737.294+65.057+737.943+64.6835+738.513+64.221L738.673+59.1515L732.963+60.7524C732.109+60.9658+731.682+61.5528+731.682+62.5134C731.682+63.4383+731.958+64.2121+732.509+64.8346C733.061+65.4572+733.781+65.7685+734.671+65.7685Z" opacity="1" fill="#641b7c"/>
<path d="M775.92+48.2121C774.035+48.39+772.718+48.4967+771.971+48.5323L771.758+48.8524C773.181+50.3822+773.892+52.1432+773.892+54.1354C773.892+55.9141+773.394+57.5328+772.398+58.9914C771.402+60.45+770.032+61.5884+768.289+62.4066C766.546+63.2249+764.589+63.634+762.419+63.634C761.245+63.634+760.089+63.4917+758.951+63.2071C758.488+63.5984+758.159+63.9275+757.963+64.1943C757.768+64.4611+757.67+64.7368+757.67+65.0214C757.67+65.6973+758.186+66.1776+759.218+66.4622C760.249+66.7468+761.886+67.0136+764.127+67.2627C766.51+67.5117+768.467+67.7963+769.997+68.1165C771.527+68.4366+772.852+69.0147+773.972+69.8508C775.093+70.6868+775.653+71.8697+775.653+73.3994C775.653+75.0714+774.977+76.6723+773.626+78.2021C772.274+79.7318+770.513+80.9681+768.343+81.9108C766.172+82.8535+763.896+83.3249+761.512+83.3249C758.666+83.3249+756.389+82.6401+754.682+81.2704C752.974+79.9008+752.12+78.0776+752.12+75.8007C753.045+74.8402+754.824+73.5417+757.457+71.9052L757.457+71.5317C755.749+71.2471+754.424+70.6334+753.481+69.6907C752.538+68.7479+752.031+67.5473+751.96+66.0887C753.241+64.7724+754.699+63.5806+756.336+62.5134L756.336+62.1932C755.055+61.4461+754.059+60.45+753.348+59.2049C752.636+57.9597+752.28+56.5545+752.28+54.9892C752.28+53.1393+752.761+51.4583+753.721+49.9464C754.682+48.4344+755.998+47.2515+757.67+46.3977C759.342+45.5439+761.228+45.117+763.326+45.117C764.216+45.117+765.265+45.2238+766.475+45.4372C767.613+45.5795+768.396+45.6507+768.823+45.6507C770.104+45.5795+772.594+44.9925+776.294+43.8897L776.614+44.1031L775.92+48.2121ZM763.38+60.112C764.661+60.112+765.648+59.6673+766.341+58.7779C767.035+57.8886+767.382+56.6079+767.382+54.9358C767.382+53.1571+766.982+51.734+766.181+50.6668C765.381+49.5995+764.251+49.0659+762.793+49.0659C761.548+49.0659+760.578+49.5017+759.885+50.3733C759.191+51.2449+758.844+52.5523+758.844+54.2955C758.844+56.0387+759.244+57.4439+760.045+58.5111C760.845+59.5784+761.957+60.112+763.38+60.112ZM760.765+72.2254C760.125+72.759+759.627+73.3638+759.271+74.0398C758.915+74.7157+758.737+75.3916+758.737+76.0676C758.737+77.0992+759.155+77.9086+759.991+78.4956C760.827+79.0826+762.01+79.3761+763.54+79.3761C765.283+79.3761+766.751+78.9936+767.942+78.2288C769.134+77.4639+769.73+76.53+769.73+75.4272C769.73+74.858+769.517+74.4044+769.09+74.0664C768.663+73.7285+767.836+73.4261+766.608+73.1593C765.381+72.8925+763.433+72.5812+760.765+72.2254Z" opacity="1" fill="#641b7c"/>
<path d="M790.381+71.0514C786.646+71.0514+783.702+69.9575+781.55+67.7696C779.398+65.5817+778.321+62.5845+778.321+58.7779C778.321+56.2165+778.873+53.9041+779.976+51.8408C781.079+49.7774+782.591+48.1498+784.512+46.9581C786.433+45.7663+788.567+45.1704+790.915+45.1704C796.892+45.1704+799.88+48.1943+799.88+54.2421C799.88+55.3094+799.756+56.3055+799.507+57.2304L798.866+57.8708L785.045+57.8708C785.081+60.4678+785.694+62.4511+786.886+63.8208C788.078+65.1904+789.741+65.8752+791.876+65.8752C793.726+65.8752+795.842+65.3416+798.226+64.2743L798.599+64.4878L799.453+67.1026C798.137+68.0987+796.616+69.0059+794.891+69.8241C793.165+70.6423+791.662+71.0514+790.381+71.0514ZM792.356+54.5089C792.783+54.4733+793.059+54.3844+793.183+54.2421C793.308+54.0998+793.37+53.7796+793.37+53.2816C793.37+50.649+792.249+49.3327+790.008+49.3327C788.621+49.3327+787.491+49.813+786.619+50.7735C785.748+51.734+785.223+53.1215+785.045+54.9358L792.356+54.5089Z" opacity="1" fill="#641b7c"/>
<path d="M810.659+71.0514C809.379+71.0514+808.214+70.9447+807.164+70.7313C806.115+70.5178+805.288+70.2955+804.683+70.0642C804.078+69.833+803.704+69.6818+803.562+69.6106L803.242+69.077C803.384+68.1165+803.518+66.9958+803.642+65.7151C803.767+64.4344+803.865+63.2071+803.936+62.0331L806.871+61.7663C806.906+65.3594+808.489+67.1559+811.62+67.1559C812.652+67.1559+813.505+66.9336+814.181+66.4889C814.857+66.0442+815.195+65.4839+815.195+64.808C815.195+64.0965+814.84+63.4472+814.128+62.8602C813.417+62.2732+811.993+61.4639+809.859+60.4322C807.724+59.4361+806.177+58.3777+805.216+57.2571C804.256+56.1365+803.776+54.8291+803.776+53.3349C803.776+51.734+804.238+50.3199+805.163+49.0926C806.088+47.8652+807.386+46.9047+809.059+46.211C810.731+45.5173+812.634+45.1704+814.768+45.1704C815.8+45.1704+816.761+45.2415+817.65+45.3838C818.539+45.5261+819.242+45.6773+819.758+45.8374C820.274+45.9975+820.603+46.0954+820.745+46.1309L821.012+46.6646C820.941+47.0559+820.789+47.9364+820.558+49.306C820.327+50.6757+820.14+52.0898+819.998+53.5484L817.01+53.7618L817.063+52.8013C817.063+51.5562+816.761+50.6401+816.156+50.0531C815.551+49.4661+814.608+49.1726+813.328+49.1726C812.403+49.1726+811.62+49.395+810.98+49.8397C810.339+50.2843+810.019+50.8447+810.019+51.5206C810.019+52.1965+810.304+52.8191+810.873+53.3883C811.442+53.9575+812.385+54.5623+813.701+55.2026C815.8+56.1987+817.41+57.0881+818.53+57.8708C819.651+58.6534+820.434+59.445+820.878+60.2454C821.323+61.0459+821.545+61.9975+821.545+63.1004C821.545+64.5589+821.065+65.893+820.105+67.1026C819.144+68.3121+817.828+69.2727+816.156+69.9842C814.484+70.6957+812.652+71.0514+810.659+71.0514Z" opacity="1" fill="#641b7c"/>
</g>
</g>
</g>
</svg>
