<?xml version="1.0" encoding="UTF-8" standalone="no"?> <!-- Created with Vectornator for iOS (http://vectornator.io/) --><!DOCTYPE svg PUBLIC "-//W3C//DTD SVG 1.1//EN" "http://www.w3.org/Graphics/SVG/1.1/DTD/svg11.dtd">
<svg height="100%" style="fill-rule:evenodd;clip-rule:evenodd;stroke-linecap:round;stroke-linejoin:round;" xmlns:xlink="http://www.w3.org/1999/xlink" xmlns="http://www.w3.org/2000/svg" xml:space="preserve" width="100%" xmlns:vectornator="http://vectornator.io" version="1.1" viewBox="0 0 468 160">
<metadata>
<vectornator:setting key="DisplayWhiteBackground" value="1"/>
<vectornator:setting key="RulersVisible" value="1"/>
<vectornator:setting key="Units" value="Pixels"/>
<vectornator:setting key="New" value="1"/>
<vectornator:setting key="DynamicGuides" value="1"/>
<vectornator:setting key="GuidesVisible" value="1"/>
<vectornator:setting key="SnapToPoints" value="1"/>
<vectornator:setting key="SnapToGrid" value="1"/>
<vectornator:setting key="SnapToGuides" value="1"/>
<vectornator:setting key="DimensionsVisible" value="1"/>
<vectornator:setting key="SnapToEdges" value="1"/>
</metadata>
<defs/>
<g id="Layer 2" vectornator:layerName="Layer 2">
<path d="M19.1105+10.1674L442.651+10.1674C447.028+10.1674+450.576+12.9077+450.576+16.288L450.576+138.567C450.576+141.948+447.028+144.688+442.651+144.688L19.1105+144.688C14.7337+144.688+11.1857+141.948+11.1857+138.567L11.1857+16.288C11.1857+12.9077+14.7337+10.1674+19.1105+10.1674Z" opacity="1" fill="#ffffff"/>
<g opacity="1">
<g opacity="1">
<path d="M101.334+48.1516C95.4836+48.5173+92.9371+48.5819+89.9657+48.6924C88.5347+51.2442+87.2962+54.1333+86.0533+57.5067C83.272+65.0562+82.2613+73.708+82.6358+83.961C82.8631+90.1841+83.4868+95.9922+84.7876+105.513C84.8826+106.209+85.2587+108.954+85.3514+109.633C85.9342+113.9+87.0665+117.867+88.6884+121.105C91.6171+121.136+94.4082+121.161+98.4117+121.266C98.9359+121.341+99.7224+121.37+100.771+121.37L101.783+114.305L101.334+113.511C99.3129+113.735+97.889+113.844+97.0654+113.844C95.2685+113.844+94.0426+113.287+93.4062+112.164C92.7699+111.041+92.4627+108.911+92.4627+105.767C92.4627+100.001+92.5919+92.8531+92.8539+84.3177C93.116+75.7824+93.4346+68.2148+93.809+61.6262C93.9587+59.4549+94.4554+57.9822+95.3164+57.196C96.1774+56.4099+98.0004+55.8213+100.771+55.447L101.334+48.1516Z" opacity="1" fill="#4a145c"/>
<path d="M90.2786+48.7167C89.1453+48.7567+86.4619+48.9352+85.7796+48.9352L71.6371+48.821L70.7383+55.3411L71.2895+56.2399L74.7754+56.1257C76.4225+56.1257+77.5089+56.5114+78.033+57.2976C78.5571+58.0837+78.8176+59.6394+78.8176+61.9604L78.8176+79.2562C75.4958+79.6033+72.2799+79.8319+69.4521+79.9514C70.0665+84.0561+72.5822+87.1968+74.3235+89.0984L78.8176+89.1381L78.8176+93.0958C79.9002+93.8902+82.1+95.5711+83.9869+96.2838C83.4798+91.7888+83.1442+87.82+83.0037+83.9737C82.6276+73.6766+83.6349+64.9824+86.435+57.382C87.6524+54.0777+88.8807+51.2399+90.2786+48.7167Z" opacity="1" fill="#882aa7"/>
<path d="M69.4521+79.9514C68.0682+80.0079+66.7206+80.0507+65.4547+80.0507C65.4547+80.0507+61.1262+84.7682+61.3927+84.7682L66.4677+89.0338L74.3235+89.0984C72.6168+87.211+71.3081+85.1961+70.5595+83.0699C70.4239+82.6848+70.3467+82.4788+70.043+81.6447C69.8106+81.0063+69.6324+80.4817+69.4521+79.9514ZM78.8176+93.0958L78.8176+103.628C78.8175+106.398+78.5964+108.519+78.1472+109.979C77.698+111.439+76.8943+112.464+75.7338+113.063C74.5733+113.662+72.9095+114.001+70.7383+114.076L69.8295+121.267L85.3277+121.038C86.2594+121.038+87.9035+121.082+88.9875+121.093C87.4016+117.853+86.306+113.909+85.7299+109.691C85.6373+109.013+85.2489+106.255+85.1539+105.56C84.6653+101.984+84.299+99.0322+83.9869+96.2838C83.3805+95.9798+82.7822+95.6588+82.1943+95.3155C80.9968+94.6163+79.8787+93.8696+78.8176+93.0958Z" opacity="1" fill="#641b7c"/>
<path d="M58.8281+48.1516C54.9527+48.3982+51.7795+48.5742+49.0818+48.7039C48.3089+50.3834+47.3411+52.1881+46.0439+54.3423C45.8392+54.6822+44.7627+56.4453+44.6631+56.6092C44.1241+57.496+43.7404+58.143+43.3858+58.7609C40.354+64.0465+38.0177+68.2146+35.9179+72.0399L35.9179+80.5665C37.0492+81.0991+39.0398+82.1314+39.9723+82.3226C44.998+83.3535+48.7337+82.0145+52.3957+79.8415L50.7387+79.8185L51.4176+63.6514C51.5674+61.4801+51.8057+59.9069+52.1426+58.9335C52.4795+57.9602+53.0766+57.2339+53.9377+56.7472C54.7987+56.2606+56.2025+55.8615+58.1492+55.562L58.8281+48.1516Z" opacity="1" fill="#6b80ff"/>
<path d="M52.3957+79.8415C48.5445+82.0488+44.1742+82.6873+38.7716+81.5791C37.8498+81.39+36.9902+81.0594+35.9179+80.5665L35.9179+88.9895C38.2278+91.1863+40.0796+93.8899+41.5563+97.0098C42.3117+96.9666+45.8932+100.603+46.5848+100.565C48.8855+100.44+48.3422+96.6611+50.382+96.5725L50.5201+90.1517C53.8145+89.8522+56.8805+89.5939+59.7256+89.3692C62.1104+89.181+64.074+89.066+65.6171+89.0355C65.915+89.0296+66.2021+89.0355+66.4686+89.0355C66.4687+89.0355+66.069+84.7607+65.456+80.0487L52.3957+79.8415Z" opacity="1" fill="#ff5959"/>
<path d="M49.0818+48.7039C46.2198+48.8387+29.0943+49.1872+29.0943+49.1872L28.3118+55.7116L28.8757+56.6092L32.2472+56.4941C33.8944+56.4941+34.9795+56.8816+35.5036+57.6678C36.0277+58.4539+36.2861+60.0071+36.2861+62.3281L35.9179+72.0399C37.946+68.3601+40.5593+63.9529+43.4319+58.9451C43.7882+58.3239+44.1802+57.671+44.7206+56.7818C44.8204+56.6177+45.8857+54.8656+46.09+54.5264C47.3382+52.4535+48.3242+50.3259+49.0818+48.7039Z" opacity="1" fill="#09d7ff"/>
<path d="M50.382+96.515C48.3521+96.6025+48.776+98.3502+46.4874+98.4749C45.7814+98.5134+41.922+95.8262+41.142+95.8706C41.3547+96.3181+41.993+97.8212+42.1891+98.2871C42.2571+98.4484+43.0194+100.297+43.2593+100.853C44.1811+102.989+45.0092+104.438+46.0554+105.571C47.3748+107+48.86+107.257+50.3705+107.849C50.2915+107.007+50.1864+106.892+50.1864+105.79L50.382+96.515Z" opacity="1" fill="#ff00c6"/>
<path d="M35.9179+88.4142L35.9179+96.2043C37.0777+96.1403+37.6653+96.1298+38.9787+96.0547C40.0676+95.9925+40.4601+95.9686+41.165+95.9282C39.7728+93.0215+38.0445+90.4976+35.9179+88.4142Z" opacity="1" fill="#967aff"/>
<path d="M41.142+95.8706C40.4452+95.9104+40.0652+95.9364+39.0017+95.9972C37.6834+96.0726+37.0929+96.094+35.9294+96.1583L35.9294+103.891C35.9294+107.036+35.381+109.246+34.2954+110.519C33.2098+111.792+31.0595+112.728+27.8401+113.327L27.0576+120.518C28.9294+120.294+31.7169+120.064+35.4231+119.839C39.1292+119.615+42.2556+119.506+44.8012+119.506C48.395+119.506+52.885+119.615+58.2757+119.839L59.2884+112.774L58.7245+112.095C56.703+112.32+55.3192+112.429+54.5705+112.429C52.8485+112.429+51.6944+111.912+51.0955+110.864C50.7431+110.247+50.5186+109.166+50.3705+107.849C48.7503+107.247+47.1838+106.241+45.7793+104.719C44.6985+103.549+43.8625+102.069+42.9256+99.898C42.6842+99.3388+41.9222+97.4792+41.8554+97.3205C41.6408+96.8107+41.3765+96.3578+41.142+95.8706Z" opacity="1" fill="#ffb900"/>
</g>
<g opacity="1">
<path d="M112.951+115.723C115.048+115.361+116.584+114.656+117.56+113.608C118.537+112.56+119.025+111.023+119.025+108.998L119.025+85.5711C119.025+83.2573+118.699+81.6665+118.049+80.7988C117.398+79.9311+116.205+79.4973+114.469+79.4973C113.963+79.4973+113.457+79.5335+112.951+79.6058C112.445+79.6781+112.119+79.7504+111.975+79.8227L112.626+73.6405C116.675+73.062+120.796+72.3932+124.99+71.6339C129.184+70.8747+131.895+70.3505+133.124+70.0613L134.101+71.7966C133.305+73.3874+132.673+77.7439+132.203+84.8661C131.733+91.9883+131.498+100.358+131.498+109.975C131.498+111.71+131.751+112.939+132.257+113.662C132.763+114.385+133.631+114.747+134.86+114.747C135.511+114.747+136.143+114.711+136.758+114.638C137.373+114.566+137.788+114.53+138.005+114.53L138.331+115.072L137.246+121.688C136.451+121.616+134.878+121.544+132.528+121.471C130.178+121.399+127.774+121.363+125.315+121.363C123.074+121.363+120.525+121.526+117.669+121.851C114.813+122.176+112.951+122.411+112.083+122.556L112.951+115.723ZM124.339+60.7337C121.953+60.7337+120.109+60.0468+118.808+58.673C117.506+57.2991+116.855+55.4553+116.855+53.1415C116.855+50.5384+117.633+48.4415+119.187+46.8508C120.742+45.26+122.821+44.4647+125.424+44.4647C127.738+44.4647+129.545+45.1697+130.847+46.5796C132.148+47.9896+132.799+49.8515+132.799+52.1653C132.799+54.6961+132.022+56.7568+130.467+58.3476C128.913+59.9383+126.87+60.7337+124.339+60.7337Z" opacity="1" fill="#4a145c"/>
<path d="M182.04+122.664C176.906+122.664+173.146+121.598+170.76+119.465C168.374+117.332+167.181+113.951+167.181+109.324L167.181+85.1372C167.181+82.8234+166.783+81.2869+165.988+80.5277C165.193+79.7685+163.638+79.3527+161.324+79.2804L160.24+78.5212L160.999+73.2066C163.746+71.9051+166.458+70.4047+169.133+68.7055C171.809+67.0063+174.032+65.5059+175.804+64.2044C177.575+62.9029+178.678+62.0714+179.112+61.7098L182.148+63.2283C182.076+63.6621+181.913+64.7106+181.66+66.3736C181.407+68.0367+181.172+70.0974+180.955+72.5559L193.754+72.2305L194.188+72.7728L193.103+80.0396L180.305+79.7142C179.871+86.0049+179.654+93.8864+179.654+103.359C179.654+106.468+180.196+108.709+181.281+110.083C182.365+111.457+184.137+112.144+186.595+112.144C187.897+112.144+189.216+111.927+190.554+111.493C191.892+111.059+192.741+110.77+193.103+110.625L194.513+114.096C194.079+114.53+193.049+115.434+191.422+116.808C189.795+118.181+188.06+119.501+186.216+120.766C184.372+122.032+182.98+122.664+182.04+122.664Z" opacity="1" fill="#4a145c"/>
<path d="M198.526+115.072C200.406+114.855+201.726+114.331+202.485+113.5C203.244+112.668+203.624+111.24+203.624+109.215L203.624+56.5037C203.624+54.1899+203.298+52.5992+202.647+51.7315C201.997+50.8638+200.804+50.43+199.068+50.43L196.574+50.43L196.14+49.9961L196.791+44.3562C204.6+43.2716+211.903+42.1147+218.7+40.8855L219.459+42.9462C218.736+43.7416+218.121+47.3389+217.615+53.738C217.109+60.1372+216.711+68.6874+216.422+79.3888C218.736+77.1473+221.393+75.0324+224.394+73.0439C227.394+71.0555+229.582+70.0613+230.956+70.0613C236.162+70.0613+240.175+71.2724+242.995+73.6947C245.815+76.117+247.225+79.5696+247.225+84.0526C247.225+85.788+246.899+89.5841+246.248+95.441C245.525+102.816+245.164+107.552+245.164+109.649C245.164+111.529+245.435+112.867+245.977+113.662C246.52+114.458+247.405+114.855+248.635+114.855L251.888+114.638L252.105+115.072L251.129+121.688L248.635+121.58C244.441+121.435+241.368+121.363+239.415+121.363C236.74+121.363+232.727+121.652+227.376+122.231L227.919+115.506C229.726+115.145+231.028+114.494+231.823+113.554C232.619+112.614+233.016+111.24+233.016+109.432L233.45+90.6687C233.522+84.378+231.173+81.2327+226.4+81.2327C225.171+81.2327+223.598+81.6484+221.682+82.48C219.766+83.3115+217.977+84.4142+216.313+85.788C216.169+89.9818+216.097+98.0078+216.097+109.866C216.097+111.674+216.35+112.939+216.856+113.662C217.362+114.385+218.193+114.747+219.35+114.747L222.17+114.638L222.387+115.181L221.303+121.688C220.363+121.688+219.64+121.652+219.133+121.58C214.94+121.435+211.758+121.363+209.589+121.363C205.395+121.363+201.382+121.471+197.55+121.688L198.526+115.072Z" opacity="1" fill="#4a145c"/>
<path d="M281.932+122.664C274.34+122.664+268.356+120.441+263.982+115.994C259.607+111.547+257.42+105.455+257.42+97.7186C257.42+92.5125+258.541+87.8126+260.782+83.6188C263.024+79.425+266.097+76.117+270.001+73.6947C273.906+71.2724+278.244+70.0613+283.016+70.0613C295.164+70.0613+301.238+76.2073+301.238+88.4995C301.238+90.6687+300.985+92.6933+300.479+94.5733L299.177+95.8748L271.086+95.8748C271.158+101.153+272.405+105.184+274.828+107.968C277.25+110.752+280.63+112.144+284.969+112.144C288.729+112.144+293.031+111.059+297.876+108.89L298.635+109.324L300.37+114.638C297.695+116.663+294.604+118.507+291.097+120.17C287.59+121.833+284.535+122.664+281.932+122.664ZM285.945+89.0418C286.813+88.9695+287.373+88.7887+287.626+88.4995C287.879+88.2103+288.006+87.5595+288.006+86.5472C288.006+81.1965+285.728+78.5212+281.173+78.5212C278.353+78.5212+276.057+79.4973+274.285+81.4496C272.514+83.4019+271.447+86.2218+271.086+89.9095L285.945+89.0418Z" opacity="1" fill="#4a145c"/>
<path d="M309.481+115.181C311.65+115.036+313.114+114.458+313.873+113.445C314.633+112.433+315.012+110.517+315.012+107.697L315.012+86.1134C315.012+83.6549+314.687+81.9738+314.036+81.07C313.385+80.1661+312.156+79.7142+310.348+79.7142L308.288+79.8227L307.745+79.0635L308.396+73.6405C312.228+72.9897+316.151+72.2666+320.164+71.4713C324.177+70.6759+326.762+70.1697+327.919+69.9528L328.895+70.929C328.751+71.5797+328.552+72.9535+328.299+75.0504C328.046+77.1473+327.883+79.1719+327.811+81.1242L328.461+81.5581C330.703+78.1596+333.179+75.5204+335.891+73.6405C338.602+71.7605+341.187+70.8205+343.646+70.8205C344.658+70.8205+345.49+70.8566+346.14+70.929C346.791+71.0013+347.225+71.0736+347.442+71.1459L347.876+72.0136C347.659+73.2428+347.297+75.9+346.791+79.9854C346.285+84.0707+345.923+87.9572+345.706+91.6449L338.765+92.0787C338.765+88.608+338.566+86.3122+338.168+85.1915C337.771+84.0707+336.957+83.5103+335.728+83.5103C334.571+83.5103+333.342+83.9442+332.04+84.8119C330.739+85.6795+329.51+86.8726+328.353+88.391C328.281+90.4156+328.118+93.7237+327.865+98.3152C327.612+102.907+327.449+106.576+327.377+109.324C327.377+111.204+327.684+112.505+328.299+113.228C328.913+113.951+330.016+114.313+331.607+114.313C332.691+114.313+333.776+114.277+334.86+114.205C335.945+114.132+336.668+114.06+337.03+113.988L337.355+114.638L336.162+121.797C335.15+121.724+333.288+121.634+330.576+121.526C327.865+121.417+325.063+121.363+322.171+121.363C319.423+121.363+316.675+121.417+313.928+121.526C311.18+121.634+309.408+121.724+308.613+121.797L309.481+115.181Z" opacity="1" fill="#4a145c"/>
<path d="M376.618+122.664C369.025+122.664+363.042+120.441+358.667+115.994C354.293+111.547+352.106+105.455+352.106+97.7186C352.106+92.5125+353.226+87.8126+355.468+83.6188C357.709+79.425+360.782+76.117+364.687+73.6947C368.592+71.2724+372.93+70.0613+377.702+70.0613C389.85+70.0613+395.924+76.2073+395.924+88.4995C395.924+90.6687+395.67+92.6933+395.164+94.5733L393.863+95.8748L365.772+95.8748C365.844+101.153+367.091+105.184+369.513+107.968C371.936+110.752+375.316+112.144+379.655+112.144C383.414+112.144+387.717+111.059+392.561+108.89L393.32+109.324L395.056+114.638C392.381+116.663+389.289+118.507+385.783+120.17C382.276+121.833+379.221+122.664+376.618+122.664ZM380.631+89.0418C381.498+88.9695+382.059+88.7887+382.312+88.4995C382.565+88.2103+382.691+87.5595+382.691+86.5472C382.691+81.1965+380.414+78.5212+375.858+78.5212C373.038+78.5212+370.743+79.4973+368.971+81.4496C367.2+83.4019+366.133+86.2218+365.772+89.9095L380.631+89.0418Z" opacity="1" fill="#4a145c"/>
<path d="M409.481+95.8748L407.42+49.1285L408.722+47.2846L422.822+45.007L424.557+46.8508L417.941+96.2002L411.216+97.3932L409.481+95.8748ZM412.843+122.556C410.24+122.556+408.27+121.833+406.932+120.387C405.595+118.941+404.926+116.988+404.926+114.53C404.926+111.927+405.703+109.812+407.258+108.185C408.812+106.558+410.927+105.745+413.603+105.745C416.133+105.745+418.086+106.468+419.459+107.914C420.833+109.36+421.52+111.312+421.52+113.771C421.52+116.374+420.725+118.489+419.134+120.116C417.543+121.743+415.446+122.556+412.843+122.556Z" opacity="1" fill="#4a145c"/>
</g>
</g>
</g>
</svg>
