<?xml version="1.0" encoding="UTF-8" standalone="no"?> <!-- Created with Vectornator for iOS (http://vectornator.io/) --><!DOCTYPE svg PUBLIC "-//W3C//DTD SVG 1.1//EN" "http://www.w3.org/Graphics/SVG/1.1/DTD/svg11.dtd">
<svg height="100%" style="fill-rule:evenodd;clip-rule:evenodd;stroke-linecap:round;stroke-linejoin:round;" xmlns:xlink="http://www.w3.org/1999/xlink" xmlns="http://www.w3.org/2000/svg" xml:space="preserve" width="100%" xmlns:vectornator="http://vectornator.io" version="1.1" viewBox="0 0 468 160">
<metadata>
<vectornator:setting key="DisplayWhiteBackground" value="1"/>
<vectornator:setting key="RulersVisible" value="1"/>
<vectornator:setting key="Units" value="Pixels"/>
<vectornator:setting key="New" value="1"/>
<vectornator:setting key="DynamicGuides" value="1"/>
<vectornator:setting key="GuidesVisible" value="1"/>
<vectornator:setting key="SnapToPoints" value="1"/>
<vectornator:setting key="SnapToGrid" value="1"/>
<vectornator:setting key="SnapToGuides" value="1"/>
<vectornator:setting key="DimensionsVisible" value="1"/>
<vectornator:setting key="SnapToEdges" value="1"/>
</metadata>
<defs/>
<g id="Layer 2" vectornator:layerName="Layer 2">
<g vectornator:shadowOffset="0" vectornator:shadowOpacity="1" vectornator:shadowAngle="0.503813" vectornator:shadowColor="#ffffff" opacity="1" vectornator:shadowRadius="15.5284">
<g opacity="1">
<path d="M89.8114+42.099C83.1577+42.5148+80.2618+42.5883+76.8827+42.714C75.2554+45.6159+73.8469+48.9014+72.4336+52.7376C69.2706+61.323+68.1212+71.1619+68.5471+82.8217C68.8056+89.8986+69.5149+96.5036+70.9941+107.331C71.1021+108.122+71.5299+111.244+71.6353+112.016C72.2981+116.868+73.5858+121.38+75.4302+125.062C78.7607+125.098+81.9348+125.126+86.4876+125.245C87.0837+125.331+87.9782+125.363+89.1702+125.363L90.3217+117.329L89.8114+116.426C87.5125+116.681+85.8932+116.805+84.9566+116.805C82.9131+116.805+81.5191+116.172+80.7953+114.895C80.0716+113.618+79.7223+111.195+79.7223+107.619C79.7223+101.063+79.8692+92.9338+80.1672+83.2273C80.4652+73.5209+80.8276+64.915+81.2533+57.4223C81.4236+54.9531+81.9884+53.2783+82.9676+52.3843C83.9467+51.4903+86.0198+50.821+89.1702+50.3953L89.8114+42.099Z" opacity="1" fill="#4a145c"/>
<path d="M77.2385+42.7416C75.9497+42.7871+72.8982+42.9901+72.1222+42.9901L56.0393+42.8602L55.0171+50.2749L55.644+51.297L59.6082+51.1671C61.4813+51.1671+62.7167+51.6058+63.3127+52.4998C63.9088+53.3938+64.205+55.163+64.205+57.8025L64.205+77.4713C60.4274+77.866+56.7703+78.126+53.5545+78.2619C54.2532+82.9298+57.1141+86.5015+59.0943+88.6639L64.205+88.7091L64.205+93.2098C65.4361+94.1132+67.9378+96.0247+70.0836+96.8353C69.507+91.7234+69.1252+87.2101+68.9655+82.8361C68.5378+71.1262+69.6833+61.2391+72.8676+52.5958C74.2521+48.8381+75.6489+45.6109+77.2385+42.7416Z" opacity="1" fill="#882aa7"/>
<path d="M53.5545+78.2619C51.9807+78.3262+50.4482+78.3749+49.0086+78.3749C49.0086+78.3748+44.0862+83.7396+44.3893+83.7396L50.1606+88.5905L59.0943+88.6639C57.1534+86.5176+55.6652+84.2262+54.8138+81.8083C54.6596+81.3704+54.5719+81.1361+54.2265+80.1876C53.9622+79.4615+53.7596+78.865+53.5545+78.2619ZM64.205+93.2098L64.205+105.187C64.2049+108.338+63.9535+110.75+63.4426+112.41C62.9318+114.07+62.0179+115.236+60.6981+115.917C59.3784+116.598+57.4863+116.984+55.0171+117.069L53.9837+125.246L71.6083+124.986C72.6679+124.986+74.5376+125.036+75.7702+125.048C73.9668+121.363+72.7208+116.878+72.0657+112.082C71.9604+111.311+71.5187+108.175+71.4107+107.384C70.8551+103.318+70.4385+99.9607+70.0836+96.8353C69.394+96.4895+68.7136+96.1245+68.045+95.7341C66.6832+94.9389+65.4117+94.0898+64.205+93.2098Z" opacity="1" fill="#641b7c"/>
<path d="M41.4728+42.099C37.0656+42.3794+33.4571+42.5796+30.3892+42.7271C29.5103+44.637+28.4097+46.6893+26.9346+49.1391C26.7018+49.5256+25.4775+51.5306+25.3643+51.7169C24.7514+52.7254+24.3149+53.4612+23.9118+54.164C20.4639+60.1747+17.8071+64.9147+15.4192+69.2649L15.4192+78.9614C16.7057+79.5671+18.9694+80.741+20.0298+80.9585C25.7451+82.1308+29.9934+80.6081+34.1579+78.137L32.2735+78.1108L33.0456+59.7254C33.2159+57.2562+33.4868+55.4671+33.87+54.3603C34.2531+53.2534+34.9322+52.4274+35.9114+51.874C36.8905+51.3205+38.487+50.8667+40.7007+50.5261L41.4728+42.099Z" opacity="1" fill="#6b80ff"/>
<path d="M34.1579+78.137C29.7782+80.6471+24.8083+81.3732+18.6644+80.1129C17.6162+79.8979+16.6386+79.522+15.4192+78.9614L15.4192+88.5401C18.046+91.0383+20.1519+94.1129+21.8312+97.6608C22.6902+97.6117+26.7631+101.747+27.5496+101.704C30.166+101.562+29.5482+97.2643+31.8679+97.1636L32.0249+89.8618C35.7713+89.5212+39.258+89.2274+42.4935+88.9719C45.2055+88.7578+47.4385+88.6271+49.1934+88.5924C49.5321+88.5858+49.8586+88.5924+50.1617+88.5924C50.1617+88.5925+49.7072+83.7311+49.0102+78.3725L34.1579+78.137Z" opacity="1" fill="#ff5959"/>
<path d="M30.3892+42.7271C27.1346+42.8804+7.65934+43.2767+7.65934+43.2767L6.76952+50.6963L7.41072+51.7169L11.2448+51.5861C13.118+51.5861+14.3521+52.0268+14.9481+52.9208C15.5441+53.8148+15.8379+55.5811+15.8379+58.2205L15.4192+69.2649C17.7256+65.0802+20.6974+60.0683+23.9641+54.3733C24.3694+53.6669+24.8152+52.9245+25.4297+51.9132C25.5431+51.7266+26.7547+49.7342+26.9869+49.3484C28.4064+46.9911+29.5277+44.5715+30.3892+42.7271Z" opacity="1" fill="#09d7ff"/>
<path d="M31.8679+97.0982C29.5595+97.1976+30.0415+99.1852+27.4389+99.327C26.636+99.3707+22.247+96.3148+21.3601+96.3654C21.6019+96.8742+22.3278+98.5836+22.5509+99.1134C22.6281+99.2968+23.4951+101.399+23.7678+102.031C24.8161+104.46+25.7579+106.108+26.9477+107.397C28.4481+109.022+30.1371+109.314+31.8548+109.988C31.7649+109.03+31.6454+108.899+31.6454+107.645L31.8679+97.0982Z" opacity="1" fill="#ff00c6"/>
<path d="M15.4192+87.8858L15.4192+96.7448C16.7381+96.672+17.4063+96.6601+18.9+96.5747C20.1382+96.504+20.5845+96.4768+21.3862+96.4308C19.803+93.1254+17.8376+90.2551+15.4192+87.8858Z" opacity="1" fill="#967aff"/>
<path d="M21.3601+96.3654C20.5677+96.4106+20.1355+96.4402+18.9261+96.5093C17.427+96.595+16.7554+96.6194+15.4323+96.6925L15.4323+105.486C15.4323+109.062+14.8087+111.576+13.5741+113.023C12.3395+114.471+9.8942+115.535+6.233+116.216L5.34317+124.395C7.47177+124.139+10.6418+123.878+14.8565+123.623C19.0711+123.367+22.6264+123.243+25.5213+123.243C29.6083+123.243+34.7143+123.367+40.8447+123.623L41.9962+115.588L41.355+114.816C39.0561+115.072+37.4825+115.196+36.6311+115.196C34.6727+115.196+33.3604+114.608+32.6792+113.416C32.2784+112.715+32.0232+111.485+31.8548+109.988C30.0123+109.303+28.2308+108.159+26.6336+106.428C25.4045+105.097+24.4538+103.414+23.3884+100.945C23.1138+100.309+22.2474+98.1946+22.1714+98.0142C21.9273+97.4344+21.6268+96.9194+21.3601+96.3654Z" opacity="1" fill="#ffb900"/>
</g>
<g opacity="1">
<path d="M103.022+118.942C105.406+118.53+107.154+117.729+108.264+116.536C109.374+115.344+109.929+113.597+109.929+111.294L109.929+84.6526C109.929+82.0214+109.559+80.2123+108.819+79.2256C108.079+78.2389+106.722+77.7455+104.748+77.7455C104.173+77.7455+103.597+77.7866+103.022+77.8689C102.446+77.9511+102.076+78.0333+101.912+78.1155L102.652+71.0851C107.256+70.4272+111.943+69.6666+116.713+68.8032C121.482+67.9398+124.565+67.3437+125.963+67.0148L127.073+68.9882C126.169+70.7973+125.449+75.7515+124.915+83.8509C124.38+91.9504+124.113+101.468+124.113+112.405C124.113+114.378+124.401+115.776+124.976+116.598C125.552+117.42+126.539+117.832+127.937+117.832C128.677+117.832+129.396+117.79+130.095+117.708C130.794+117.626+131.267+117.585+131.514+117.585L131.884+118.202L130.65+125.725C129.746+125.643+127.957+125.561+125.285+125.479C122.612+125.397+119.878+125.355+117.083+125.355C114.534+125.355+111.635+125.54+108.387+125.91C105.139+126.28+103.022+126.548+102.035+126.712L103.022+118.942ZM115.973+56.4074C113.259+56.4074+111.162+55.6262+109.682+54.0639C108.202+52.5016+107.462+50.4048+107.462+47.7735C107.462+44.8133+108.346+42.4287+110.114+40.6197C111.882+38.8106+114.246+37.9061+117.206+37.9061C119.837+37.9061+121.893+38.7079+123.373+40.3113C124.853+41.9147+125.593+44.0321+125.593+46.6634C125.593+49.5414+124.709+51.8849+122.941+53.6939C121.173+55.5029+118.85+56.4074+115.973+56.4074Z" opacity="1" fill="#4a145c"/>
<path d="M181.59+126.836C175.752+126.836+171.476+125.623+168.763+123.197C166.049+120.771+164.692+116.927+164.692+111.664L164.692+84.1593C164.692+81.528+164.24+79.7806+163.336+78.9173C162.431+78.0539+160.663+77.5811+158.032+77.4988L156.799+76.6354L157.662+70.5917C160.787+69.1116+163.87+67.4054+166.913+65.473C169.955+63.5407+172.484+61.8344+174.498+60.3543C176.513+58.8742+177.767+57.9286+178.26+57.5175L181.714+59.2443C181.631+59.7376+181.446+60.9299+181.159+62.8212C180.871+64.7124+180.604+67.0559+180.357+69.8516L194.911+69.4816L195.405+70.0983L194.171+78.3622L179.617+77.9922C179.123+85.146+178.877+94.1088+178.877+104.881C178.877+108.416+179.493+110.966+180.727+112.528C181.96+114.09+183.975+114.871+186.771+114.871C188.251+114.871+189.751+114.625+191.273+114.131C192.794+113.638+193.76+113.309+194.171+113.145L195.775+117.092C195.281+117.585+194.109+118.613+192.259+120.175C190.409+121.737+188.436+123.238+186.339+124.677C184.242+126.116+182.659+126.836+181.59+126.836Z" opacity="1" fill="#4a145c"/>
<path d="M200.338+118.202C202.476+117.955+203.977+117.359+204.84+116.413C205.704+115.468+206.135+113.844+206.135+111.541L206.135+51.5971C206.135+48.9658+205.765+47.1568+205.025+46.17C204.285+45.1833+202.928+44.6899+200.955+44.6899L198.118+44.6899L197.625+44.1966L198.365+37.7828C207.245+36.5494+215.55+35.2337+223.28+33.8359L224.143+36.1794C223.321+37.0839+222.622+41.1747+222.046+48.4519C221.471+55.729+221.019+65.4525+220.69+77.6222C223.321+75.0731+226.343+72.6679+229.755+70.4067C233.168+68.1454+235.655+67.0148+237.217+67.0148C243.138+67.0148+247.701+68.3921+250.908+71.1467C254.115+73.9014+255.719+77.8277+255.719+82.9259C255.719+84.8993+255.349+89.2163+254.609+95.8767C253.786+104.264+253.375+109.65+253.375+112.035C253.375+114.172+253.684+115.694+254.3+116.598C254.917+117.503+255.924+117.955+257.322+117.955L261.022+117.708L261.269+118.202L260.159+125.725L257.322+125.602C252.553+125.438+249.058+125.355+246.838+125.355C243.796+125.355+239.232+125.684+233.147+126.342L233.764+118.695C235.82+118.284+237.3+117.544+238.204+116.475C239.109+115.406+239.561+113.844+239.561+111.788L240.054+90.4497C240.136+83.2959+237.464+79.719+232.037+79.719C230.639+79.719+228.851+80.1918+226.672+81.1374C224.493+82.083+222.458+83.337+220.566+84.8993C220.402+89.6685+220.32+98.7958+220.32+112.281C220.32+114.337+220.607+115.776+221.183+116.598C221.759+117.42+222.704+117.832+224.02+117.832L227.227+117.708L227.473+118.325L226.24+125.725C225.171+125.725+224.349+125.684+223.773+125.602C219.004+125.438+215.386+125.355+212.919+125.355C208.15+125.355+203.586+125.479+199.228+125.725L200.338+118.202Z" opacity="1" fill="#4a145c"/>
<path d="M295.188+126.836C286.554+126.836+279.75+124.307+274.775+119.25C269.8+114.193+267.313+107.265+267.313+98.4669C267.313+92.5465+268.587+87.2017+271.136+82.4325C273.685+77.6633+277.18+73.9014+281.62+71.1467C286.061+68.3921+290.994+67.0148+296.421+67.0148C310.236+67.0148+317.143+74.0041+317.143+87.9829C317.143+90.4497+316.855+92.7521+316.279+94.89L314.799+96.3701L282.854+96.3701C282.936+102.373+284.354+106.957+287.109+110.123C289.864+113.288+293.708+114.871+298.642+114.871C302.917+114.871+307.81+113.638+313.319+111.171L314.183+111.664L316.156+117.708C313.114+120.011+309.598+122.107+305.61+123.999C301.622+125.89+298.148+126.836+295.188+126.836ZM299.752+88.5996C300.738+88.5174+301.376+88.3118+301.663+87.9829C301.951+87.654+302.095+86.9139+302.095+85.7627C302.095+79.6779+299.505+76.6354+294.325+76.6354C291.118+76.6354+288.507+77.7455+286.492+79.9657C284.478+82.1858+283.265+85.3927+282.854+89.5863L299.752+88.5996Z" opacity="1" fill="#4a145c"/>
<path d="M326.517+118.325C328.984+118.16+330.649+117.503+331.512+116.351C332.376+115.2+332.807+113.021+332.807+109.814L332.807+85.2694C332.807+82.4736+332.437+80.5618+331.697+79.534C330.957+78.5061+329.559+77.9922+327.504+77.9922L325.16+78.1155L324.543+77.2521L325.283+71.0851C329.641+70.345+334.102+69.5227+338.666+68.6182C343.23+67.7137+346.169+67.1381+347.485+66.8914L348.595+68.0015C348.431+68.7416+348.204+70.3039+347.917+72.6885C347.629+75.0731+347.444+77.3755+347.362+79.5956L348.102+80.089C350.651+76.2243+353.467+73.223+356.551+71.0851C359.634+68.9471+362.574+67.8782+365.369+67.8782C366.521+67.8782+367.466+67.9193+368.206+68.0015C368.946+68.0837+369.44+68.166+369.686+68.2482L370.18+69.2349C369.933+70.6328+369.522+73.6547+368.946+78.3005C368.371+82.9464+367.96+87.3662+367.713+91.5598L359.819+92.0531C359.819+88.1062+359.593+85.4955+359.141+84.2209C358.688+82.9464+357.763+82.3092+356.365+82.3092C355.05+82.3092+353.652+82.8025+352.172+83.7893C350.692+84.776+349.294+86.1327+347.978+87.8595C347.896+90.1619+347.711+93.9238+347.423+99.1453C347.135+104.367+346.95+108.54+346.868+111.664C346.868+113.802+347.218+115.282+347.917+116.105C348.616+116.927+349.869+117.338+351.679+117.338C352.912+117.338+354.145+117.297+355.379+117.215C356.612+117.133+357.434+117.05+357.846+116.968L358.216+117.708L356.859+125.849C355.708+125.767+353.59+125.664+350.507+125.54C347.423+125.417+344.237+125.355+340.948+125.355C337.823+125.355+334.698+125.417+331.574+125.54C328.449+125.664+326.435+125.767+325.53+125.849L326.517+118.325Z" opacity="1" fill="#4a145c"/>
<path d="M402.865+126.836C394.231+126.836+387.427+124.307+382.452+119.25C377.477+114.193+374.99+107.265+374.99+98.4669C374.99+92.5465+376.265+87.2017+378.814+82.4325C381.363+77.6633+384.857+73.9014+389.298+71.1467C393.738+68.3921+398.672+67.0148+404.099+67.0148C417.913+67.0148+424.82+74.0041+424.82+87.9829C424.82+90.4497+424.532+92.7521+423.957+94.89L422.477+96.3701L390.531+96.3701C390.613+102.373+392.032+106.957+394.786+110.123C397.541+113.288+401.385+114.871+406.319+114.871C410.595+114.871+415.487+113.638+420.997+111.171L421.86+111.664L423.833+117.708C420.791+120.011+417.276+122.107+413.288+123.999C409.3+125.89+405.826+126.836+402.865+126.836ZM407.429+88.5996C408.416+88.5174+409.053+88.3118+409.341+87.9829C409.629+87.654+409.772+86.9139+409.772+85.7627C409.772+79.6779+407.182+76.6354+402.002+76.6354C398.795+76.6354+396.184+77.7455+394.17+79.9657C392.155+82.1858+390.942+85.3927+390.531+89.5863L407.429+88.5996Z" opacity="1" fill="#4a145c"/>
<path d="M440.238+96.3701L437.894+43.2098L439.374+41.113L455.409+38.5228L457.382+40.6197L449.859+96.7401L442.211+98.0969L440.238+96.3701ZM444.061+126.712C441.101+126.712+438.861+125.89+437.339+124.245C435.818+122.601+435.057+120.381+435.057+117.585C435.057+114.625+435.941+112.22+437.709+110.369C439.477+108.519+441.882+107.594+444.925+107.594C447.803+107.594+450.023+108.416+451.585+110.061C453.148+111.706+453.929+113.926+453.929+116.721C453.929+119.682+453.024+122.087+451.215+123.937C449.406+125.787+447.022+126.712+444.061+126.712Z" opacity="1" fill="#4a145c"/>
</g>
</g>
</g>
</svg>
