<?xml version="1.0" encoding="UTF-8" standalone="no"?> <!-- Created with Vectornator for iOS (http://vectornator.io/) --><!DOCTYPE svg PUBLIC "-//W3C//DTD SVG 1.1//EN" "http://www.w3.org/Graphics/SVG/1.1/DTD/svg11.dtd">
<svg height="100%" style="fill-rule:evenodd;clip-rule:evenodd;stroke-linecap:round;stroke-linejoin:round;" xmlns:xlink="http://www.w3.org/1999/xlink" xmlns="http://www.w3.org/2000/svg" xml:space="preserve" width="100%" xmlns:vectornator="http://vectornator.io" version="1.1" viewBox="0 0 1024 1024">
<metadata>
<vectornator:setting key="DisplayWhiteBackground" value="1"/>
<vectornator:setting key="RulersVisible" value="1"/>
<vectornator:setting key="Units" value="Pixels"/>
<vectornator:setting key="New" value="1"/>
<vectornator:setting key="DynamicGuides" value="1"/>
<vectornator:setting key="GuidesVisible" value="1"/>
<vectornator:setting key="SnapToPoints" value="1"/>
<vectornator:setting key="SnapToGrid" value="1"/>
<vectornator:setting key="SnapToGuides" value="1"/>
<vectornator:setting key="DimensionsVisible" value="1"/>
<vectornator:setting key="SnapToEdges" value="1"/>
</metadata>
<defs/>
<g id="Layer 1" vectornator:layerName="Layer 1">
<path d="M-167.811-171.286L1082.01-171.286L1082.01+1140.62L-167.811+1140.62L-167.811-171.286Z" opacity="1" fill="#ffffff"/>
<g opacity="1">
<path d="M823.234+203.337C773.903+206.42+752.432+206.965+727.38+207.897C715.315+229.412+704.872+253.771+694.394+282.213C670.943+345.865+662.422+418.811+665.579+505.257C667.496+557.726+672.755+606.696+683.722+686.972C684.523+692.833+687.694+715.983+688.476+721.704C693.389+757.679+702.936+791.129+716.611+818.431C741.304+818.695+764.836+818.901+798.591+819.789C803.01+820.421+809.642+820.663+818.48+820.663L827.017+761.094L823.234+754.399C806.189+756.293+794.184+757.213+787.24+757.213C772.089+757.213+761.754+752.517+756.388+743.048C751.023+733.579+748.433+715.619+748.433+689.106C748.433+640.499+749.522+580.229+751.731+508.265C753.941+436.301+756.627+372.497+759.784+316.945C761.046+298.639+765.234+286.222+772.493+279.594C779.753+272.965+795.123+268.003+818.48+264.847L823.234+203.337Z" opacity="1" fill="#4a145c"/>
<path d="M730.018+208.102C720.463+208.439+697.838+209.944+692.085+209.944L572.846+208.981L565.268+263.954L569.915+271.532L599.306+270.569C613.194+270.569+622.353+273.822+626.771+280.45C631.191+287.078+633.387+300.195+633.387+319.764L633.387+465.59C605.38+468.516+578.266+470.443+554.424+471.451C559.604+506.059+580.814+532.54+595.496+548.572L633.387+548.907L633.387+582.276C642.515+588.974+661.062+603.146+676.971+609.155C672.696+571.256+669.866+537.794+668.681+505.364C665.51+418.546+674.003+345.243+697.612+281.162C707.876+253.302+718.232+229.376+730.018+208.102Z" opacity="1" fill="#882aa7"/>
<path d="M554.424+471.451C542.755+471.928+531.393+472.289+520.72+472.289C520.72+472.288+484.225+512.063+486.472+512.063L529.261+548.028L595.496+548.572C581.106+532.659+570.072+515.671+563.76+497.744C562.617+494.497+561.966+492.76+559.406+485.728C557.446+480.345+555.944+475.922+554.424+471.451ZM633.387+582.276L633.387+671.077C633.386+694.434+631.522+712.317+627.734+724.626C623.947+736.936+617.171+745.576+607.387+750.626C597.602+755.677+583.574+758.536+565.268+759.167L557.606+819.792L688.275+817.866C696.131+817.866+709.993+818.238+719.132+818.327C705.762+791.007+696.524+757.756+691.667+722.198C690.885+716.479+687.611+693.227+686.81+687.364C682.691+657.215+679.603+632.327+676.971+609.155C671.859+606.592+666.814+603.885+661.857+600.99C651.76+595.095+642.334+588.8+633.387+582.276Z" opacity="1" fill="#641b7c"/>
<path d="M464.849+203.337C432.174+205.417+405.42+206.901+382.675+207.994C376.159+222.154+367.999+237.37+357.062+255.533C355.336+258.399+346.26+273.264+345.42+274.646C340.876+282.123+337.64+287.578+334.651+292.788C309.088+337.352+289.391+372.494+271.687+404.747L271.687+476.637C281.225+481.128+298.008+489.831+305.87+491.444C348.244+500.136+379.741+488.846+410.616+470.525L396.646+470.331L402.37+334.021C403.632+315.714+405.641+302.45+408.482+294.243C411.322+286.037+416.357+279.913+423.617+275.81C430.876+271.707+442.712+268.342+459.125+265.817L464.849+203.337Z" opacity="1" fill="#6b80ff"/>
<path d="M410.616+470.525C378.145+489.135+341.298+494.518+295.747+485.175C287.975+483.58+280.727+480.793+271.687+476.637L271.687+547.654C291.162+566.176+306.775+588.971+319.225+615.276C325.594+614.911+355.791+645.572+361.622+645.254C381.02+644.198+376.439+612.335+393.638+611.589L394.802+557.453C422.578+554.928+448.429+552.75+472.417+550.856C492.524+549.268+509.079+548.299+522.09+548.042C524.601+547.993+527.022+548.042+529.269+548.042C529.269+548.042+525.9+512+520.732+472.271L410.616+470.525Z" opacity="1" fill="#ff5959"/>
<path d="M382.675+207.994C358.546+209.131+214.155+212.069+214.155+212.069L207.558+267.078L212.312+274.646L240.738+273.675C254.626+273.675+263.775+276.943+268.194+283.571C272.613+290.2+274.791+303.294+274.791+322.864L271.687+404.747C288.786+373.722+310.819+336.563+335.039+294.34C338.044+289.103+341.349+283.599+345.905+276.101C346.746+274.717+355.728+259.945+357.45+257.085C367.975+239.608+376.288+221.669+382.675+207.994Z" opacity="1" fill="#09d7ff"/>
<path d="M393.638+611.104C376.524+611.841+380.097+626.577+360.801+627.628C354.849+627.953+322.309+605.296+315.733+605.671C317.526+609.443+322.908+622.117+324.561+626.045C325.134+627.405+331.562+642.994+333.584+647.68C341.356+665.685+348.339+677.901+357.159+687.457C368.284+699.508+380.806+701.676+393.541+706.666C392.875+699.565+391.989+698.598+391.989+689.3L393.638+611.104Z" opacity="1" fill="#ff00c6"/>
<path d="M271.687+542.803L271.687+608.484C281.466+607.944+286.419+607.856+297.493+607.223C306.674+606.698+309.983+606.497+315.927+606.156C304.189+581.649+289.617+560.369+271.687+542.803Z" opacity="1" fill="#967aff"/>
<path d="M315.733+605.671C309.858+606.007+306.654+606.226+297.687+606.738C286.572+607.373+281.594+607.554+271.784+608.096L271.784+673.292C271.784+699.805+267.16+718.443+258.007+729.175C248.854+739.906+230.724+747.797+203.58+752.847L196.983+813.483C212.764+811.589+236.267+809.653+267.515+807.759C298.762+805.865+325.121+804.946+346.584+804.946C376.885+804.946+414.741+805.865+460.192+807.759L468.73+748.19L463.976+742.466C446.932+744.36+435.265+745.28+428.953+745.28C414.433+745.28+404.703+740.923+399.653+732.085C396.682+726.885+394.79+717.772+393.541+706.666C379.881+701.589+366.673+693.106+354.831+680.278C345.719+670.406+338.67+657.928+330.77+639.627C328.735+634.912+322.311+619.233+321.748+617.895C319.938+613.597+317.71+609.778+315.733+605.671Z" opacity="1" fill="#ffb900"/>
</g>
</g>
</svg>
